<?xml version="1.0" standalone="no"?>
<!DOCTYPE svg PUBLIC "-//W3C//DTD SVG 1.1//EN" "http://www.w3.org/Graphics/SVG/1.1/DTD/svg11.dtd" >
<svg xmlns="http://www.w3.org/2000/svg">
<metadata></metadata>
<defs>
<font id="officinasanitctitalic" horiz-adv-x="1024" vert-adv-y="2048" >
<font-face units-per-em="2048" ascent="1638" descent="-410" />
<missing-glyph horiz-adv-x="421" />
<glyph horiz-adv-x="0" vert-adv-y="0" />
<glyph horiz-adv-x="682" />
<glyph unicode=" " horiz-adv-x="421" vert-adv-y="2528" />
<glyph unicode="!" horiz-adv-x="683" vert-adv-y="2528" d="M115 110q0 59 40 99q41 41 101 41q54 0 93 -40q41 -41 41 -98t-41 -97q-40 -40 -96 -40q-57 0 -98 40q-40 39 -40 95zM288 558q0 5 2 15l125 807q3 15 8 20q6 5 22 5h155q21 0 21 -15q0 -5 -3 -17l-216 -808q-5 -16 -9 -20q-5 -3 -22 -3h-63q-20 0 -20 16z" />
<glyph unicode="&#x22;" horiz-adv-x="1025" vert-adv-y="2528" d="M386 877q0 2 1 14l68 488q2 17 7 22q6 4 22 4h124q21 0 21 -16q0 -3 -4 -16l-142 -489q-4 -15 -9 -20q-5 -3 -21 -3h-46q-21 0 -21 16zM690 877q0 1 1 14l68 488q2 17 7 22q6 4 22 4h124q20 0 20 -17q0 -4 -3 -15l-142 -489q-4 -15 -9 -20q-5 -3 -21 -3h-47q-20 0 -20 16 z" />
<glyph unicode="#" vert-adv-y="2528" d="M14 252q0 4 2 14l17 80q6 25 30 24h142l128 402h-128q-20 0 -20 16q0 8 2 16l17 79q5 24 30 24h142l133 418q4 14 9 18q6 4 21 4h77q21 0 21 -15q0 -6 -4 -18l-129 -407h258l133 418q7 22 31 22h76q21 0 21 -14q0 -7 -4 -19l-129 -407h117q21 0 21 -18q0 -5 -2 -13 l-17 -80q-6 -24 -30 -24h-131l-129 -402h119q20 0 20 -18q0 -4 -2 -13l-17 -80q-6 -25 -30 -24h-132l-121 -382q-7 -22 -31 -22h-77q-21 0 -21 14q0 6 4 19l118 371h-259l-120 -382q-7 -22 -31 -22h-77q-21 0 -21 15q0 5 4 17l117 372h-127q-21 0 -21 17zM333 370h259 l128 402h-259z" />
<glyph unicode="$" vert-adv-y="2528" d="M69 91q0 8 5 16l51 88q6 11 15 11q8 0 28 -13q101 -63 210 -74l114 534q-120 96 -147 127q-82 92 -82 217q0 113 74 210q94 123 302 142l17 77q5 25 30 24h53q20 0 20 -16q0 -6 -2 -15l-15 -70q101 -8 184 -50q57 -29 57 -46q0 -7 -5 -15l-55 -86q-5 -9 -16 -9 q-10 0 -27 11q-86 59 -165 67l-100 -471q15 -14 26 -23q94 -78 126 -121q66 -91 66 -213q0 -146 -87 -258q-97 -126 -293 -145l-23 -110q-5 -24 -30 -24h-53q-21 0 -21 17q0 3 3 14l22 103q-139 13 -239 65q-43 23 -43 36zM412 991q0 -74 48 -126q21 -23 67 -60l87 413 q-83 -16 -131 -61q-71 -66 -71 -166zM479 125q80 20 123 63q75 75 75 194q0 79 -43 144q-18 28 -56 66z" />
<glyph unicode="%" horiz-adv-x="1555" vert-adv-y="2528" d="M141 871q0 99 42 213q53 147 164 213q69 41 156 41q95 0 149 -55q61 -64 61 -185q0 -103 -39 -205q-58 -150 -166 -213q-69 -41 -153 -41q-99 0 -152 55q-62 65 -62 177zM274 869q0 -118 94 -118q93 0 151 102q25 45 43 115q20 74 20 137q0 121 -97 121q-90 0 -148 -102 q-25 -45 -43 -115q-20 -76 -20 -140zM310 -22q0 7 8 19l842 1338q12 16 32 17h88q21 0 21 -16q0 -7 -8 -19l-843 -1338q-13 -18 -34 -18h-85q-21 0 -21 17zM894 208q0 99 42 214q53 148 164 214q70 42 156 42q95 0 149 -56q61 -63 61 -185q0 -103 -40 -206 q-58 -150 -165 -214q-69 -41 -154 -41q-99 0 -152 56q-61 64 -61 176zM1027 207q0 -119 94 -119q92 0 151 103q26 46 45 118q19 74 19 138q0 119 -97 119q-90 0 -148 -102q-26 -44 -44 -115q-20 -77 -20 -142z" />
<glyph unicode="&#x26;" horiz-adv-x="1214" vert-adv-y="2528" d="M64 297q0 215 178 357q65 52 178 109q-43 67 -63 102q-54 101 -54 201q0 130 76 224q68 84 192 118q65 18 134 18q141 0 224 -85q68 -69 68 -184q0 -113 -59 -197q-82 -119 -308 -236l253 -377q89 117 117 253q6 27 11 34q7 8 19 8h106q19 0 19 -14q0 -24 -33 -114 q-57 -153 -166 -279l101 -150q7 -11 7 -19q0 -10 -15 -20l-84 -55q-9 -6 -18 -6q-11 0 -20 14l-85 131q-78 -60 -133 -88q-132 -67 -294 -67q-159 0 -250 77q-101 84 -101 245zM217 314q0 -100 60 -155q59 -55 164 -55q116 0 221 58q44 24 107 79l-277 413 q-121 -64 -179 -121q-96 -94 -96 -219zM455 1078q0 -69 45 -148q16 -29 62 -100q138 80 193 129q90 82 90 186q0 63 -32 104q-42 56 -131 56q-82 0 -143 -47q-84 -66 -84 -180z" />
<glyph unicode="'" horiz-adv-x="683" vert-adv-y="2528" d="M367 877q0 2 1 14l68 488q2 17 7 22q6 4 22 4h124q21 0 21 -16q0 -3 -4 -16l-142 -489q-4 -15 -9 -20q-5 -3 -21 -3h-46q-21 0 -21 16z" />
<glyph unicode="(" horiz-adv-x="872" vert-adv-y="2528" d="M213 220q0 348 176 696q131 261 358 489q74 75 80 80q11 10 22 10q9 0 16 -6l55 -39q10 -7 10 -18t-26 -39q-525 -560 -525 -1188q0 -232 81 -445q33 -90 59 -137q11 -20 11 -29q0 -17 -20 -28l-60 -31q-10 -5 -18 -5q-15 0 -37 38q-182 321 -182 652z" />
<glyph unicode=")" horiz-adv-x="872" vert-adv-y="2528" d="M-64 -408q0 11 26 39q198 215 315 420q210 365 210 768q0 233 -80 446q-34 89 -59 136q-12 22 -12 30q0 16 21 27l60 31q10 6 19 6q12 0 35 -38q41 -70 95 -202q87 -212 87 -448q0 -350 -176 -699q-131 -260 -358 -488q-74 -75 -80 -80q-11 -10 -22 -10q-9 0 -16 5 l-54 39q-11 8 -11 18z" />
<glyph unicode="*" vert-adv-y="2528" d="M302 1117q0 7 4 18l25 76q7 22 16 22q8 0 20 -5l223 -93l-20 244v8q1 18 20 18h96q23 0 20 -26l-19 -244l222 93q12 5 20 5q9 0 16 -22l26 -76q3 -11 3 -18q0 -12 -23 -17l-234 -56l156 -184q11 -12 11 -20t-16 -19l-65 -48q-13 -9 -20 -9q-9 0 -20 17l-125 206 l-125 -206q-11 -17 -20 -17q-7 0 -19 9l-66 48q-16 11 -16 19t11 20l156 184l-234 56q-23 5 -23 17z" />
<glyph unicode="+" vert-adv-y="2528" d="M44 473v93q0 18 5 23t23 5h364v364q0 17 5 23q5 5 23 5h93q29 1 28 -28v-364h364q18 0 23 -5t5 -23v-93q0 -18 -5 -23t-23 -5h-364v-364q0 -19 -4.5 -23.5t-23.5 -4.5h-93q-18 0 -23 5t-5 23v364h-364q-18 0 -23 5t-5 23z" />
<glyph unicode="," horiz-adv-x="607" vert-adv-y="2528" d="M-13 -213q0 5 6 19l169 408q8 21 31 21h173q22 0 22 -14q0 -8 -10 -22l-301 -439q-8 -12 -16 -12q-5 0 -16 5l-44 19q-14 7 -14 15z" />
<glyph unicode="-" horiz-adv-x="607" vert-adv-y="2528" d="M54 461q0 4 2 13l21 98q6 25 30 24h422q21 0 21 -17q0 -3 -3 -14l-20 -98q-6 -25 -31 -24h-421q-21 0 -21 18z" />
<glyph unicode="." horiz-adv-x="607" vert-adv-y="2528" d="M77 110q0 59 40 99q41 41 101 41q54 0 93 -40q41 -41 41 -98t-41 -97q-40 -40 -96 -40q-57 0 -98 40q-40 39 -40 95z" />
<glyph unicode="/" horiz-adv-x="910" vert-adv-y="2528" d="M-225 -393q0 6 8 19l1056 1814q11 18 35 18h96q21 0 21 -16q0 -6 -8 -19l-1058 -1814q-13 -19 -36 -18h-94q-20 0 -20 16z" />
<glyph unicode="0" vert-adv-y="2528" d="M88 365q0 288 120 579q167 405 484 405q301 0 301 -389q0 -288 -120 -580q-166 -405 -477 -405q-308 0 -308 390zM245 365q0 -131 46 -193q42 -57 137 -57q163 0 268 217q52 109 92 276q48 204 48 353q0 126 -46 190q-42 57 -137 57q-163 0 -268 -217q-51 -106 -91 -276 q-49 -204 -49 -350z" />
<glyph unicode="1" vert-adv-y="2528" d="M134 19q0 3 2 12l16 80q1 4 10 19q5 5 21 5h208l215 1012l-301 -169q-11 -6 -18 -6q-9 0 -19 17l-27 43q-6 9 -6 15q0 10 14 18l404 247q20 11 39 11h84q18 0 18 -16q0 -6 -2 -15l-246 -1157h181q23 0 16 -31l-17 -80q-5 -24 -30 -24h-539q-23 0 -23 19z" />
<glyph unicode="2" vert-adv-y="2528" d="M29 15q0 15 13 67q54 208 187 359q79 90 264 226q205 151 261 219q62 76 62 175q0 74 -48 113q-41 33 -109 33q-103 0 -175 -70q-43 -41 -97 -129q-16 -26 -26 -26q-6 0 -13 2l-87 29q-15 5 -15 15t18 45q77 154 213 227q89 48 199 48q133 0 216 -65q89 -68 89 -199 q0 -164 -104 -288q-58 -69 -134 -124q-57 -42 -164 -114q-205 -141 -284 -247q-52 -70 -86 -164h561q21 0 21 -16q0 -6 -2 -15l-19 -92q-8 -25 -31 -24h-693q-17 0 -17 15z" />
<glyph unicode="3" vert-adv-y="2528" d="M15 67q0 7 2 12l49 99q5 10 16 10q7 0 30 -12q114 -61 230 -61q170 0 262 122q67 88 67 204q0 192 -252 192h-72q-21 0 -21 16q0 5 2 15l17 80q7 25 30 24h73q130 0 217 76q106 93 106 222q0 149 -167 149q-68 0 -128 -33q-45 -24 -109 -80q-24 -21 -33 -21q-7 0 -11 4 l-61 65q-5 5 -5 14q0 10 23 34q75 76 183 119q81 32 167 32q147 0 231 -86q64 -66 64 -170q0 -125 -78 -231q-69 -94 -200 -146q81 -36 116 -74q67 -70 67 -187q0 -104 -47 -206q-60 -128 -201 -209q-113 -65 -264 -65q-139 0 -268 60q-35 16 -35 32z" />
<glyph unicode="4" vert-adv-y="2528" d="M17 338q0 3 3 12l18 88q5 18 18 37l707 871q11 14 18 14q8 0 16 -2l101 -22q15 -3 15 -14q0 -7 -6 -14l-697 -849h384l95 327q5 15 10 19t21 4h71q21 0 21 -17q0 -5 -2 -14l-68 -319h166q21 0 21 -17q0 -3 -3 -14l-18 -85q-5 -24 -30 -24h-166l-63 -295q-5 -25 -30 -24 h-97q-21 0 -21 17q0 3 2 14l62 288h-527q-21 0 -21 19z" />
<glyph unicode="5" vert-adv-y="2528" d="M61 40q0 3 4 19l25 81q7 23 26 23q8 0 44 -12q114 -36 204 -36q148 0 248 95q50 48 84 120q44 92 44 189q0 93 -48 143q-46 47 -132 47t-170 -48q-50 -28 -83 -61q-22 -21 -31 -23q-8 -2 -17 1l-65 23q-21 7 -21 19q0 7 3 16l206 665q7 23 31 22h538q21 0 21 -16 q0 -5 -2 -15l-18 -85q-7 -25 -30 -24h-431l-137 -423q61 40 100 56q65 26 137 26q138 0 217 -81t79 -227q0 -178 -106 -334q-88 -131 -210 -184q-95 -41 -230 -41q-146 0 -260 45q-20 8 -20 20z" />
<glyph unicode="6" vert-adv-y="2528" d="M135 339q0 262 129 537q223 473 612 473q109 0 173 -25q12 -5 12 -13q0 -6 -2 -9l-48 -102q-4 -9 -13 -9q-5 0 -25 7q-53 17 -110 17q-97 0 -174 -42q-117 -63 -216 -219q-48 -75 -88 -185q127 133 276 133q125 0 193 -79q75 -86 75 -239q0 -223 -113 -393 q-142 -216 -374 -216q-307 0 -307 364zM294 312q0 -204 171 -204q146 0 237 180q69 137 69 289q0 191 -174 191q-77 0 -144 -46.5t-101 -123.5q-58 -131 -58 -286z" />
<glyph unicode="7" horiz-adv-x="1025" vert-adv-y="2528" d="M138 13q0 7 7 20l691 1143h-539q-21 0 -21 16q0 4 2 15l20 92q7 24 30 24h700q21 0 21 -18q0 -4 -2 -13l-7 -32q-4 -20 -15 -38l-718 -1227q-10 -16 -25 -16q-8 0 -16 1l-113 18q-15 2 -15 15z" />
<glyph unicode="8" vert-adv-y="2528" d="M47 287q0 189 170 316q70 52 211 100q-181 109 -181 285q0 126 78 223q111 138 333 138q159 0 244 -65q88 -67 88 -201q0 -243 -304 -380q224 -105 224 -315q0 -168 -130 -290q-132 -123 -346 -123q-192 0 -292 87q-95 81 -95 225zM206 305q0 -87 53 -136q68 -61 186 -61 q138 0 223 74q83 73 83 193t-90 184q-36 26 -121 66q-104 -33 -174 -74q-160 -92 -160 -246zM406 1002q0 -97 78 -168q27 -24 62 -51l23 -18q103 46 154 86q120 91 120 204q0 160 -193 160q-112 0 -178 -59q-66 -60 -66 -154z" />
<glyph unicode="9" vert-adv-y="2528" d="M71 13q0 6 3 20l17 80q4 19 19 19q8 0 29 -5q50 -12 99 -12q169 0 294 130q87 91 142 221q20 46 52 138q-120 -174 -299 -174q-100 0 -172 68q-96 92 -96 266q0 144 54 275q61 149 178 233q108 77 255 77q142 0 217 -76q83 -86 83 -251q0 -325 -153 -642 q-195 -405 -550 -405q-105 0 -153 19q-19 7 -19 19zM318 770q0 -206 162 -206q126 0 210 108q48 62 76 183q21 93 21 180q0 180 -162 180q-140 0 -229 -151q-78 -133 -78 -294z" />
<glyph unicode=":" horiz-adv-x="607" vert-adv-y="2528" d="M77 110q0 59 40 99q41 41 101 41q54 0 93 -40q41 -41 41 -98t-41 -97q-40 -40 -96 -40q-57 0 -98 40q-40 39 -40 95zM230 829q0 58 40 98q41 41 101 41q54 0 94 -40q40 -42 40 -98t-40 -97q-41 -40 -97 -40t-98 40q-40 40 -40 96z" />
<glyph unicode=";" horiz-adv-x="607" vert-adv-y="2528" d="M-20 -212q0 4 6 18l169 408q8 21 31 21h173q22 0 22 -14q0 -8 -10 -22l-300 -438q-9 -13 -17 -13q-5 0 -16 5l-44 19q-14 7 -14 16zM240 827q0 58 40 98q40 41 100 41q55 0 94 -40q41 -42 41 -98q0 -57 -41 -97q-40 -40 -96 -40q-57 0 -98 40q-40 40 -40 96z" />
<glyph unicode="&#x3c;" horiz-adv-x="1054" vert-adv-y="2528" d="M70 634v138l913 429v-159l-742 -340l742 -339v-159z" />
<glyph unicode="=" vert-adv-y="2528" d="M44 333v93q0 18 5 23t23 5h877q18 0 23 -5t5 -23v-93q0 -18 -5 -23t-23 -5h-877q-18 0 -23 5t-5 23zM44 614v93q0 18 5 23t23 5h877q18 0 23 -5t5 -23v-93q0 -18 -5 -23t-23 -5h-877q-18 0 -23 5t-5 23z" />
<glyph unicode="&#x3e;" horiz-adv-x="1054" vert-adv-y="2528" d="M71 204v159l742 339l-742 340v159l912 -429v-138z" />
<glyph unicode="?" horiz-adv-x="948" vert-adv-y="2528" d="M199 110q0 59 40 99q41 41 101 41q54 0 93 -40q41 -41 41 -98t-41 -97q-40 -40 -96 -40q-57 0 -98 40q-40 39 -40 95zM304 1330q0 20 45 38q146 55 271 55q138 0 221 -64q91 -71 91 -195q0 -128 -84 -235q-74 -95 -193 -139q-43 -16 -117 -35l-40 -189q-6 -25 -30 -24 h-89q-21 0 -21 18q0 4 2 13l53 250q5 24 22 32q13 6 54 17q142 38 201 90q76 68 76 174q0 146 -179 146q-88 0 -204 -40q-29 -10 -36 -10q-14 0 -19 15l-20 70q-4 10 -4 13z" />
<glyph unicode="@" horiz-adv-x="1934" vert-adv-y="2528" d="M158 369q0 281 155 535q144 236 396 354q198 92 418 92q231 0 408 -97q277 -152 277 -508q0 -237 -119 -408q-112 -161 -266 -215q-63 -22 -119 -22q-88 0 -135 59q-37 45 -40 126q-125 -184 -282 -184q-74 0 -120 52q-56 62 -56 182q0 209 108 383q63 102 139 138 q52 25 118 25q74 0 122 -37q18 -15 44 -45l22 48q5 13 19 13h93q12 0 12 -9q0 -1 -2 -11l-100 -471q-5 -24 -5 -59q0 -97 82 -97q90 0 173 73q75 65 123 173q57 129 57 285q0 209 -115 328q-73 75 -175 113q-124 46 -262 46q-229 0 -423 -114q-195 -116 -304 -324 q-103 -198 -103 -417q0 -175 68 -317q142 -301 571 -301q331 0 608 148q22 12 33 12q12 0 19 -17l25 -59q4 -8 4 -17q0 -19 -35 -37q-85 -42 -199 -77q-239 -72 -474 -72q-363 0 -562 199q-110 111 -161 280q-37 122 -37 251zM822 342q0 -114 72 -114q81 0 160 95 q60 74 88 202l36 167q-74 68 -145 68q-87 0 -148 -136q-63 -140 -63 -282z" />
<glyph unicode="A" horiz-adv-x="1025" vert-adv-y="2528" d="M-79 17q0 5 6 18l699 1351q10 19 32 19h102q18 0 23 -4q5 -5 7 -23l124 -1348q1 -13 1 -16q0 -14 -23 -14h-112q-17 0 -22 5q-5 4 -6 22l-32 394h-433l-203 -402q-10 -19 -32 -19h-107q-24 0 -24 17zM361 562h343l-31 452l-3 49q-5 87 -5 147q-40 -100 -86 -196z" />
<glyph unicode="B" horiz-adv-x="1100" vert-adv-y="2528" d="M81 19q0 3 2 12l287 1350q7 24 28 24h2h246q212 0 288 -41q120 -64 120 -218q0 -166 -112 -296q-67 -77 -173 -114q65 -22 98 -50q92 -74 92 -215q0 -154 -99 -292q-104 -143 -268 -168q-69 -11 -209 -11h-281q-21 0 -21 19zM267 138h180q79 0 123 11.5t86 41.5 q64 48 102 132q32 73 32 140q0 185 -234 185h-180zM405 784h130q93 0 139 15q119 40 173 163q36 82 36 161q0 144 -180 144h-196z" />
<glyph unicode="C" horiz-adv-x="872" vert-adv-y="2528" d="M102 384q0 272 102 566q80 233 197 353q126 130 311 130q149 0 269 -106q19 -17 19 -29q0 -8 -8 -19l-51 -78q-7 -12 -16 -12q-11 0 -35 22q-91 82 -202 82q-95 0 -170 -82q-104 -114 -167 -342q-75 -274 -75 -495q0 -137 56 -207q44 -55 125 -55q110 0 252 108 q10 8 18 8q13 0 19 -15l32 -73q5 -11 5 -17q0 -12 -30 -33q-166 -118 -328 -118q-147 0 -224 88q-99 113 -99 324z" />
<glyph unicode="D" horiz-adv-x="1100" vert-adv-y="2528" d="M81 16q0 5 2 15l287 1350q7 24 28 24h2h210q128 0 187 -10q278 -45 278 -371q0 -286 -122 -597q-126 -324 -368 -398q-93 -29 -222 -29h-261q-21 0 -21 16zM269 145h144q179 0 278 138q90 126 154 346q62 216 62 387q0 166 -94 216q-52 28 -168 28h-139z" />
<glyph unicode="E" horiz-adv-x="948" vert-adv-y="2528" d="M81 19q0 3 2 12l287 1350q7 24 28 24h2h625q21 0 21 -15q0 -6 -7 -20l-46 -91q-9 -19 -31 -19h-456l-98 -462h404q21 0 21 -17q0 -4 -2 -14l-17 -81q-6 -25 -30 -24h-405l-110 -517h495q20 0 20 -17q0 -6 -2 -14l-19 -90q-5 -24 -28 -24h-2h-631q-21 0 -21 19z" />
<glyph unicode="F" horiz-adv-x="872" vert-adv-y="2528" d="M81 18q0 4 2 13l287 1350q7 24 28 24h2h630q21 0 21 -15q0 -6 -7 -20l-49 -91q-10 -19 -32 -19h-457l-101 -476h404q21 0 21 -19q0 -3 -2 -12l-17 -81q-6 -24 -30 -24h-405l-133 -624q-5 -24 -28 -24h-2h-111q-21 0 -21 18z" />
<glyph unicode="G" vert-adv-y="2528" d="M103 398q0 285 115 590q84 224 229 337q139 108 321 108q161 0 286 -92q24 -18 24 -29q0 -8 -7 -18l-60 -86q-7 -10 -15 -10q-9 0 -21 11q-104 84 -222 84q-209 0 -317 -211q-74 -147 -122 -349q-43 -185 -43 -352q0 -268 253 -268q85 0 164 31l91 431h-170q-21 0 -21 16 q0 4 3 15l17 81q5 25 30 24h300q21 0 21 -17q0 -4 -3 -14l-127 -599q-5 -24 -32 -37q-152 -72 -322 -72q-166 0 -259 97q-113 117 -113 329z" />
<glyph unicode="H" horiz-adv-x="1176" vert-adv-y="2528" d="M81 18q0 4 2 13l287 1350q7 24 28 24h2h112q20 0 20 -18q0 -4 -2 -13l-122 -576h474l124 583q6 24 29 24h2h111q21 0 21 -18q0 -4 -3 -13l-286 -1350q-7 -24 -28 -24h-2h-112q-21 0 -21 18q0 4 3 13l133 631h-474l-136 -638q-5 -24 -28 -24h-2h-111q-21 0 -21 18z" />
<glyph unicode="I" horiz-adv-x="683" vert-adv-y="2528" d="M-57 18q0 4 2 13l15 71q6 25 30 24h185l245 1153h-185q-20 0 -20 18q0 4 2 13l15 71q6 24 28 24h2h531q20 0 20 -16q0 -6 -2 -15l-15 -71q-7 -25 -30 -24h-185l-245 -1153h184q21 0 21 -16q0 -5 -2 -15l-15 -71q-6 -24 -28 -24h-2h-530q-21 0 -21 18z" />
<glyph unicode="J" horiz-adv-x="873" vert-adv-y="2528" d="M-32 246q0 81 16 138q6 19 22 19h113q15 0 15 -11q0 -4 -1 -10q-9 -53 -9 -111q0 -81 47 -123q40 -36 107 -36q112 0 172 92q35 53 59 163l192 905h-357q-21 0 -21 18q0 3 3 13l16 78q7 24 28 24h2h494q20 0 20 -17q0 -6 -2 -14l-199 -940q-52 -246 -131 -336 q-110 -126 -296 -126q-139 0 -215 80q-75 77 -75 194z" />
<glyph unicode="K" vert-adv-y="2528" d="M81 18q0 4 2 13l287 1350q7 25 30 24h112q20 0 20 -18q0 -4 -2 -13l-134 -629l643 671q13 13 19 13q7 0 20 -10l63 -49q15 -12 15 -20t-10 -18l-582 -600l345 -651q6 -12 6 -19q0 -9 -15 -17l-104 -55q-13 -7 -20 -7q-9 0 -16 15l-368 726l-149 -700q-5 -25 -30 -24h-111 q-21 0 -21 18z" />
<glyph unicode="L" horiz-adv-x="835" vert-adv-y="2528" d="M81 19q0 3 2 12l287 1350q7 24 28 24h2h112q20 0 20 -18q0 -4 -2 -13l-261 -1229h519q21 0 21 -14q0 -7 -8 -21l-51 -92q-10 -18 -32 -18h-616q-21 0 -21 19z" />
<glyph unicode="M" horiz-adv-x="1327" vert-adv-y="2528" d="M41 16q0 4 3 16l364 1350q7 23 28 23h2h109h2q23 0 27 -26l83 -708q4 -38 4 -111q28 67 52 111l386 715q9 19 31 19h130h2q19 0 18 -19q0 -5 -1 -12l-210 -1349q-5 -25 -28 -25h-2h-110q-20 0 -20 19q0 4 2 12l193 1052q10 48 24 108q-33 -74 -52 -108l-397 -737 q-7 -13 -12 -16q-4 -3 -20 -3h-58q-17 0 -23 5q-5 5 -7 21l-76 730q-6 66 -9 115q-9 -54 -18 -93l-4 -22l-253 -1059q-6 -24 -28 -24h-2h-109q-21 0 -21 16z" />
<glyph unicode="N" horiz-adv-x="1138" vert-adv-y="2528" d="M63 18q0 4 2 13l287 1350q7 24 28 24h2h121h2q23 0 28 -24l222 -981q20 -83 30 -159v16q0 69 15 143l209 981q6 24 28 24h2h89q20 0 20 -19q0 -5 -2 -12l-287 -1350q-6 -24 -28 -24h-2h-101q-25 0 -30 24l-235 1041q-15 60 -25 151q-4 -103 -17 -159l-219 -1033 q-6 -24 -28 -24h-2h-88q-21 0 -21 18z" />
<glyph unicode="O" horiz-adv-x="1100" vert-adv-y="2528" d="M105 390q0 299 106 597q160 446 521 446q184 0 262 -108q76 -104 76 -298q0 -230 -72 -496q-150 -559 -551 -559q-188 0 -266 108q-76 105 -76 310zM268 382q0 -157 52 -223q42 -52 136 -52q143 0 243 137q95 131 161 418q47 202 47 355q0 165 -52 229q-42 52 -140 52 q-212 0 -334 -331q-57 -153 -90 -338q-23 -133 -23 -247z" />
<glyph unicode="P" horiz-adv-x="986" vert-adv-y="2528" d="M81 18q0 4 2 13l287 1350q7 24 28 24h2h293q164 0 233 -39q122 -69 122 -256q0 -154 -69 -283q-78 -145 -241 -200q-84 -28 -228 -28h-145l-122 -575q-5 -24 -28 -24h-2h-111q-21 0 -21 18zM394 735h135q163 0 239 65q59 50 89 140q26 74 26 157q0 103 -60 140 q-38 23 -133 23h-184z" />
<glyph unicode="Q" horiz-adv-x="1100" vert-adv-y="2528" d="M106 397q0 292 106 590q160 446 519 446q187 0 265 -108q75 -105 75 -313q0 -220 -71 -481q-61 -224 -155 -348q-21 -27 -55 -67q62 -76 173 -160q37 -27 37 -39t-12 -19l-94 -51q-10 -6 -21 -6q-23 0 -58 28q-74 60 -144 155q-100 -52 -225 -52q-186 0 -265 108 q-75 105 -75 317zM269 382q0 -157 52 -223q42 -52 136 -52q143 0 243 137q96 133 161 418q47 203 47 353q0 167 -52 231q-42 52 -139 52q-140 0 -239 -137q-95 -132 -162 -420q-47 -202 -47 -359z" />
<glyph unicode="R" horiz-adv-x="1025" vert-adv-y="2528" d="M81 19q0 3 2 12l287 1350q7 24 28 24h2h293q135 0 206 -35q129 -63 129 -247q0 -125 -50 -233q-90 -194 -303 -238l211 -613q5 -13 5 -18q0 -12 -20 -16l-114 -20q-9 -2 -13 -2q-13 0 -19 18l-209 639h-142l-131 -616q-5 -25 -30 -24h-111q-21 0 -21 19zM402 770h156 q142 0 223 85q43 46 66 136q16 66 16 121q0 102 -72 137q-43 20 -126 20h-157z" />
<glyph unicode="S" horiz-adv-x="911" vert-adv-y="2528" d="M-11 85q0 7 5 16l55 94q6 10 16 10q7 0 21 -10q43 -31 114 -57q70 -26 144 -26q131 0 203 76q76 80 76 205q0 92 -50 159q-41 56 -165 154q-112 89 -153 147q-58 84 -58 190q0 118 70 220q115 170 381 170q165 0 273 -70q34 -23 34 -35q0 -9 -6 -17l-57 -91 q-7 -10 -18 -10q-10 0 -42 23q-94 67 -197 67q-124 0 -197 -74q-71 -73 -71 -177q0 -71 50 -129q34 -40 147 -129q112 -89 163 -160q70 -97 70 -221q0 -136 -75 -251q-121 -187 -394 -187q-179 0 -316 86q-23 14 -23 27z" />
<glyph unicode="T" horiz-adv-x="796" vert-adv-y="2528" d="M149 1278q0 4 2 13l19 90q7 24 30 24h795q21 0 21 -15q0 -7 -6 -20l-47 -91q-8 -19 -31 -19h-297l-263 -1236q-6 -24 -28 -24h-2h-111q-21 0 -21 16q0 5 2 15l261 1229h-303q-21 0 -21 18z" />
<glyph unicode="U" horiz-adv-x="1176" vert-adv-y="2528" d="M128 257q0 59 15 129l211 995q7 24 28 24h2h112q20 0 20 -16q0 -7 -2 -15l-210 -988q-14 -67 -14 -109q0 -84 47 -121q53 -44 164 -44q136 0 225 74q76 62 105 200l211 995q7 24 29 24h2h105q21 0 21 -16q0 -5 -2 -15l-210 -988q-25 -119 -57 -179q-127 -235 -453 -235 q-179 0 -263 69q-86 72 -86 216z" />
<glyph unicode="V" horiz-adv-x="911" vert-adv-y="2528" d="M175 1364v6q0 12 20 15l120 23q7 1 14 1q16 0 17 -22l30 -1076v-28q0 -48 -2 -127q45 112 65 155l501 1092q8 16 17 16q5 0 17 -3l101 -28q17 -4 17 -16q0 -5 -6 -17l-646 -1334q-14 -21 -36 -21h-2h-121q-18 0 -24 5q-5 5 -6 22l-75 1329q0 1 -1 8z" />
<glyph unicode="W" horiz-adv-x="1366" vert-adv-y="2528" d="M188 29l29 1336q0 24 24 29l106 21q6 1 15 1q17 0 16 -17l-1 -11l-50 -1023q-4 -86 -22 -225q45 152 73 225l421 1019q10 22 32 21h92q29 1 28 -29l-45 -1022q-4 -93 -19 -201q37 131 64 201l409 1043q8 21 19 21q4 0 15 -2l96 -21q18 -4 18 -18q0 -5 -6 -16l-565 -1340 q-11 -21 -34 -21h-2h-117q-30 0 -27 29l56 1083l-444 -1091q-9 -21 -31 -21h-122q-19 0 -24 7q-4 5 -4 22z" />
<glyph unicode="X" horiz-adv-x="910" vert-adv-y="2528" d="M-111 40q0 8 10 21l511 664l-210 617q-5 14 -5 18q0 10 20 17l103 36q12 4 18 4q11 0 17 -18l138 -421q17 -61 28 -125q43 80 80 133l313 417q11 16 19 16q4 0 17 -5l94 -36q15 -6 15 -15q0 -8 -10 -21l-466 -607l232 -675q4 -11 4 -17q0 -11 -18 -17l-113 -35 q-12 -4 -17 -4q-11 0 -17 18l-160 497l-6 18q-7 22 -19 67q-24 -40 -55 -85l-374 -502q-11 -14 -17 -14t-18 4l-99 34q-15 6 -15 16z" />
<glyph unicode="Y" horiz-adv-x="835" vert-adv-y="2528" d="M133 1367q0 12 20 18l117 33q16 3 18 3q11 0 15 -21l129 -546q18 -85 23 -138q35 62 83 138l345 549q11 18 19 18q4 0 16 -3l114 -31q17 -5 17 -14t-9 -22l-528 -757l-121 -570q-5 -24 -28 -24h-2h-112q-20 0 -20 17q0 4 2 14l119 563l-213 756q-4 13 -4 17z" />
<glyph unicode="Z" horiz-adv-x="835" vert-adv-y="2528" d="M-88 15q0 5 2 16l24 114l848 1120h-533q-22 0 -22 14q0 6 5 19l35 86q9 21 31 21h679q20 0 20 -17q0 -4 -2 -14l-20 -94l-853 -1135h623q21 0 21 -17q0 -3 -2 -14l-20 -90q-4 -24 -27 -24h-2h-786q-21 0 -21 15z" />
<glyph unicode="[" horiz-adv-x="872" vert-adv-y="2528" d="M126 -401q0 4 3 12l388 1830q9 25 30 24h354q20 0 20 -16q0 -6 -2 -15l-15 -71q-5 -25 -30 -24h-224l-347 -1633h224q20 0 20 -18q0 -4 -2 -13l-15 -71q-6 -25 -30 -24h-353q-21 0 -21 19z" />
<glyph unicode="\" horiz-adv-x="910" vert-adv-y="2528" d="M107 1438q0 20 25 20h82q24 0 30 -18l539 -1814q3 -10 3 -13q0 -22 -26 -22h-80q-22 -1 -30 18l-541 1814q-2 6 -2 15z" />
<glyph unicode="]" horiz-adv-x="873" vert-adv-y="2528" d="M-51 -404q0 4 2 15l16 71q4 25 29 24h224l347 1633h-223q-21 0 -21 18q0 4 2 13l15 71q5 25 30 24h353q21 0 21 -17q0 -4 -2 -14l-389 -1830q-9 -25 -30 -24h-353q-21 0 -21 16z" />
<glyph unicode="^" horiz-adv-x="1054" vert-adv-y="2528" d="M67 790l369 618h181l369 -618h-152l-309 509l-307 -509h-151z" />
<glyph unicode="_" horiz-adv-x="1054" vert-adv-y="2528" d="M-156 -151h1054v-106h-1054v106z" />
<glyph unicode="`" vert-adv-y="2528" d="M430 1309q0 10 7 18l87 102q12 14 23 14q7 0 15 -9l211 -224q5 -5 5 -12q0 -8 -5 -14l-35 -45q-8 -11 -17 -11q-5 0 -15 6l-269 163q-7 4 -7 12z" />
<glyph unicode="a" horiz-adv-x="986" vert-adv-y="2528" d="M72 275q0 138 43 287q48 164 131 281q120 168 298 168q96 0 160 -50q24 -19 60 -59l28 64q7 18 26 17h83q16 0 16 -12l-2 -14l-144 -675q-10 -48 -10 -118q0 -61 12 -109q4 -15 4 -22q0 -11 -11 -15l-96 -39q-7 -3 -12 -3q-10 0 -17 15q-22 47 -22 122q0 29 4 78 q-142 -219 -334 -219q-94 0 -150 69q-67 82 -67 234zM228 284q0 -172 112 -172q48 0 103 32q172 98 229 365l59 278q-97 90 -194 90q-69 0 -120 -45t-99 -147q-45 -99 -71 -225q-19 -96 -19 -176z" />
<glyph unicode="b" horiz-adv-x="986" vert-adv-y="2528" d="M79 106q0 4 2 13l280 1314q4 19 21 22l107 26q7 2 13 2q13 0 13 -11q0 -5 -2 -14l-106 -501q-19 -76 -31 -105q43 57 95 93q99 66 211 66q225 0 225 -273q0 -198 -90 -421q-91 -226 -213 -301q-71 -44 -183 -44q-140 0 -300 93q-36 21 -39 28t-3 13zM237 158 q119 -53 200 -53q72 0 123 51q62 62 124 238q67 192 67 336q0 147 -125 147q-97 0 -187 -89q-86 -86 -114 -214z" />
<glyph unicode="c" horiz-adv-x="796" vert-adv-y="2528" d="M66 313q0 193 77 368q145 330 459 330q144 0 231 -63q13 -10 13 -21q0 -6 -3 -12l-52 -87q-5 -8 -16 -8q-9 0 -25 10q-82 47 -164 47q-165 0 -256 -151q-42 -70 -73 -182q-35 -123 -35 -229q0 -203 184 -203q104 0 207 75q17 13 27 13q11 0 15 -10l36 -82q1 -2 1 -7 q0 -14 -44 -42q-134 -87 -292 -87q-290 0 -290 341z" />
<glyph unicode="d" horiz-adv-x="986" vert-adv-y="2528" d="M74 273q0 192 69 387q125 351 404 351q112 0 217 -67l104 489q4 18 21 22l107 26q7 2 13 2q13 0 13 -12q0 -6 -2 -13l-243 -1145q-11 -52 -11 -113q0 -67 17 -133q3 -10 3 -16q0 -11 -11 -17l-98 -53q-10 -5 -17 -5q-11 0 -18 20q-21 59 -21 147q0 13 1 38 q-142 -209 -326 -209q-222 0 -222 301zM230 275q0 -163 105 -163q112 0 217 114q49 52 75 116q20 48 40 144l69 328q-52 32 -81 44q-45 19 -100 19q-101 0 -163 -62q-63 -64 -113 -236q-49 -166 -49 -304z" />
<glyph unicode="e" horiz-adv-x="910" vert-adv-y="2528" d="M68 345q0 190 81 356q152 310 437 310q137 0 207 -77q64 -71 64 -185q0 -133 -89 -221q-97 -95 -301 -122q-98 -14 -244 -16l-1 -13q-1 -32 -1 -38q0 -113 51 -176q42 -51 143 -51q135 0 264 88q20 13 29 13t17 -12l51 -75q2 -3 2 -9q0 -9 -21 -24q-170 -121 -357 -121 q-170 0 -255 104q-77 94 -77 269zM242 516q469 0 469 227q0 141 -148 141q-243 0 -321 -368z" />
<glyph unicode="f" horiz-adv-x="607" vert-adv-y="2528" d="M-290 -379q0 5 2 12l30 87q4 12 14 12q5 0 20 -4q52 -14 105 -14q110 0 161 82q38 61 56 155l176 913h-144q-16 0 -16 14q0 4 2 12l15 73q6 20 25 20h144l42 197q30 147 85 204q85 89 244 89q100 0 193 -39q26 -11 26 -22q0 -7 -3 -13l-35 -82q-4 -11 -14 -11q-7 0 -25 8 q-87 39 -157 39q-96 0 -135 -72q-18 -33 -36 -119l-38 -179h291q16 0 16 -12q0 -6 -4 -16l-28 -73q-5 -13 -8 -15q-4 -3 -17 -3h-275l-175 -921q-30 -162 -97 -244q-95 -116 -283 -116q-72 0 -136 19q-21 6 -21 19z" />
<glyph unicode="g" horiz-adv-x="986" vert-adv-y="2528" d="M-33 -332q0 1 4 17l38 94q5 12 16 12q10 0 51 -20q144 -72 245 -72q128 0 189 101q25 41 42 113q5 21 23 118q13 70 37 182q-58 -90 -107 -133q-84 -76 -197 -76q-108 0 -168 71q-63 74 -63 222q0 165 59 337q75 218 202 309q96 68 207 68q124 0 248 -96q19 36 51 69 q23 23 37 23q10 0 18 -7l59 -53q8 -7 8 -14q0 -8 -16 -27q-45 -51 -66 -107q-19 -48 -34 -123l-63 -296q-36 -165 -58 -309q-33 -214 -66 -291q-51 -122 -165 -174q-88 -40 -195 -40q-116 0 -251 53q-85 33 -85 49zM233 293q0 -77 22 -110q26 -39 84 -39q65 0 135 47 q97 66 154 198q24 54 37 114l64 297q-113 77 -204 77q-70 0 -122 -49q-68 -65 -123 -239q-47 -148 -47 -296z" />
<glyph unicode="h" vert-adv-y="2528" d="M60 13q0 4 2 13l299 1407q5 18 22 22l107 26q7 2 13 2q13 0 13 -12q0 -5 -2 -13l-113 -532q-14 -69 -40 -132q86 109 163 156q101 61 212 61q112 0 161 -68q28 -40 28 -104q0 -39 -20 -135l-146 -684q-5 -20 -25 -20h-107q-16 0 -16 13q0 5 2 13l144 678q12 56 12 86 q0 87 -93 87q-102 0 -202 -91q-127 -115 -170 -318l-96 -448q-5 -20 -25 -20h-107q-16 0 -16 13z" />
<glyph unicode="i" horiz-adv-x="531" vert-adv-y="2528" d="M103 877q0 2 2 13l15 73q5 20 25 20h295q15 0 15 -16q0 -3 -2 -10l-199 -937q-4 -20 -25 -20h-107q-16 0 -16 15q0 3 2 11l178 838h-167q-16 0 -16 13zM338 1343q0 48 34 82t84 34q45 0 78 -34q34 -34 34 -81t-34 -81t-81 -34t-81 34q-34 33 -34 80z" />
<glyph unicode="j" horiz-adv-x="531" vert-adv-y="2528" d="M-334 -357q0 7 5 17l36 81q5 12 21 12q8 0 30 -12q79 -42 149 -42q55 0 90 32q60 56 108 281l181 852h-167q-16 0 -16 13q0 5 2 13l15 73q4 20 25 20h294q17 0 16 -13q-1 -12 -1 -13l-209 -981q-43 -203 -98 -281q-45 -67 -125 -100q-68 -29 -140 -29q-102 0 -192 50 q-24 14 -24 27zM316 1343q0 48 34 82t83 34q46 0 79 -34q34 -34 34 -81t-34 -81t-81 -34t-81 34q-34 33 -34 80z" />
<glyph unicode="k" horiz-adv-x="872" vert-adv-y="2528" d="M60 13q0 4 2 13l299 1407q5 18 22 22l107 26q7 2 13 2q13 0 13 -12q0 -5 -2 -13l-188 -884l499 424q11 9 16 9q6 0 17 -9l71 -58q7 -6 7 -11q0 -7 -9 -14l-452 -364l312 -483q5 -8 5 -12q0 -9 -13 -16l-91 -56q-10 -6 -17 -6t-13 9l-338 558l-112 -525q-5 -20 -25 -20 h-107q-16 0 -16 13z" />
<glyph unicode="l" horiz-adv-x="493" vert-adv-y="2528" d="M84 126q0 69 38 246l226 1061q4 19 22 22l106 27q9 2 13 2q13 0 13 -12q0 -2 -1 -14l-231 -1086q-32 -149 -32 -206q0 -68 62 -68q41 0 85 26q13 8 20 8q13 0 15 -13l9 -70q1 -7 1 -13q0 -15 -25 -27q-77 -37 -155 -37q-75 0 -118 38q-48 42 -48 116z" />
<glyph unicode="m" horiz-adv-x="1479" vert-adv-y="2528" d="M61 13q0 5 2 13l146 687q14 66 14 108q0 47 -16 110q-1 5 -1 12q0 16 16 23l82 36q11 5 17 5q12 0 19 -19q20 -48 20 -120q0 -18 -2 -51q50 78 112 121q106 73 225 73q101 0 140 -72q22 -42 25 -122q66 87 119 124q99 70 221 70q89 0 136 -48q42 -44 42 -120 q0 -50 -18 -133l-147 -690q-4 -20 -25 -20h-106q-16 0 -16 13q0 8 1 13l146 684q9 43 9 78q0 89 -88 89q-136 0 -228 -130q-56 -79 -98 -275l-96 -452q-5 -20 -25 -20h-107q-16 0 -16 13q0 7 1 13l146 684q12 55 12 78q0 89 -95 89q-121 0 -210 -109q-67 -83 -110 -283 l-99 -465q-4 -20 -25 -20h-107q-16 0 -16 13z" />
<glyph unicode="n" vert-adv-y="2528" d="M61 13q0 5 2 13l146 690q14 63 14 103q0 53 -15 109q-2 8 -2 13q0 11 9 15l90 45q13 6 21 6q12 0 19 -14q20 -43 20 -127q0 -20 -4 -72q80 107 163 156q105 61 213 61q82 0 135 -43q51 -41 51 -119q0 -54 -19 -145l-146 -684q-4 -20 -25 -20h-106q-17 0 -17 13q0 2 2 13 l144 678q11 51 11 82q0 91 -92 91q-78 0 -161 -59q-159 -115 -210 -350l-95 -448q-4 -20 -25 -20h-107q-16 0 -16 13z" />
<glyph unicode="o" horiz-adv-x="986" vert-adv-y="2528" d="M67 316q0 287 156 509q131 186 371 186q134 0 215 -73q96 -87 96 -272q0 -174 -71 -347q-78 -190 -212 -276q-110 -71 -247 -71q-308 0 -308 344zM223 316q0 -211 177 -211q166 0 255 176q36 71 64 176q30 111 30 206q0 214 -185 214q-161 0 -254 -179q-40 -76 -64 -184 q-23 -102 -23 -198z" />
<glyph unicode="p" horiz-adv-x="986" vert-adv-y="2528" d="M-31 -422q0 4 2 12l229 1079q14 65 14 120q0 69 -23 128q-8 19 -8 26q0 11 11 16l98 43q10 5 17 5q10 0 24 -28q19 -42 33 -115q67 72 114 100q81 47 182 47q229 0 229 -333q0 -164 -54 -330q-123 -376 -387 -376q-120 0 -232 86l-94 -438q-5 -18 -20 -22l-109 -31 q-9 -3 -13 -3q-13 0 -13 14zM245 186q105 -81 204 -81q90 0 147 82q56 79 98 232q41 146 41 270q0 188 -129 188q-103 0 -188 -99q-51 -58 -79 -159q-6 -21 -22 -94z" />
<glyph unicode="q" horiz-adv-x="986" vert-adv-y="2528" d="M72 276q0 176 68 374q125 361 416 361q103 0 180 -49q24 -16 63 -48q61 93 85 93q5 0 12 -4l65 -43q7 -5 7 -14q0 -8 -23 -41q-63 -89 -87 -214l-228 -1071q-5 -18 -21 -22l-109 -31q-10 -3 -13 -3q-13 0 -13 16q0 2 2 10l119 560q-67 -78 -127 -114q-86 -50 -177 -50 q-95 0 -146 59q-73 84 -73 231zM228 298q0 -172 116 -172q62 0 128 38q97 55 144 159q29 61 46 145l73 341q-91 68 -192 68q-99 0 -164 -73q-58 -65 -102 -210q-49 -159 -49 -296z" />
<glyph unicode="r" horiz-adv-x="607" vert-adv-y="2528" d="M61 13q0 5 2 13l132 623q23 106 23 156q0 42 -18 119q-2 10 -2 16q0 15 16 22l87 40q12 5 20 5q16 0 25 -29q18 -60 18 -117q0 -19 -3 -48q50 74 83 105q100 93 203 93q79 0 79 -28q0 -2 -2 -7l-48 -112q-5 -13 -14 -13q-4 0 -24 5q-22 6 -46 6q-70 0 -148 -87 q-73 -82 -107 -178q-12 -34 -32 -127l-96 -450q-4 -20 -25 -20h-107q-16 0 -16 13z" />
<glyph unicode="s" horiz-adv-x="759" vert-adv-y="2528" d="M-29 70q0 5 3 11l39 87q6 13 19 13q10 0 31 -13q48 -28 119 -47q57 -16 107 -16q80 0 128 40q59 48 59 129q0 69 -50 116q-24 23 -145 104q-75 50 -104 103q-28 50 -28 113q0 100 61 180q92 121 280 121q134 0 216 -54q18 -13 18 -26q0 -9 -4 -17l-36 -70q-7 -14 -24 -14 q-9 0 -26 8q-79 39 -157 39q-89 0 -137 -48q-39 -40 -39 -100q0 -52 41 -92q24 -23 130 -93q80 -54 114 -103q40 -59 40 -137q0 -100 -55 -186q-92 -146 -305 -146q-165 0 -282 78q-13 9 -13 20z" />
<glyph unicode="t" horiz-adv-x="645" vert-adv-y="2528" d="M89 877q0 5 2 13l16 73q4 20 24 20h150l60 284q4 17 21 22l108 30q10 3 15 3q15 0 10 -26l-67 -313h278q17 0 17 -12q0 -5 -6 -16l-36 -75q-8 -16 -26 -16h-252l-121 -566q-11 -54 -11 -99q0 -94 90 -94q68 0 185 52q7 4 13 4q10 0 12 -11l12 -70q1 -6 1 -11 q0 -19 -26 -32q-125 -65 -243 -65q-197 0 -197 200q0 46 17 126l120 566h-150q-16 0 -16 13z" />
<glyph unicode="u" vert-adv-y="2528" d="M94 168q0 61 17 140l138 650q4 18 22 22l107 24q7 2 11 2q14 0 14 -16q0 -3 -1 -10l-135 -632q-17 -78 -17 -134q0 -102 100 -102q71 0 149 46q105 62 151 161q22 46 41 135l107 504q5 19 22 22l106 24q8 2 13 2q13 0 13 -12q0 -6 -2 -14l-152 -716q-11 -54 -11 -99 q0 -54 22 -108q3 -6 3 -12q0 -10 -9 -14l-96 -49q-12 -6 -19 -6q-10 0 -18 15q-20 36 -20 116q0 30 4 58q-51 -56 -89 -89q-121 -104 -256 -104q-105 0 -163 59q-52 52 -52 137z" />
<glyph unicode="v" horiz-adv-x="796" vert-adv-y="2528" d="M97 961q0 11 17 15l114 25q10 2 14 2q11 0 12 -13l62 -645q9 -91 9 -129v-7q8 15 31 58q36 67 57 103l326 625q5 9 11 9q3 0 15 -2l105 -26q13 -3 13 -12q0 -6 -6 -17l-538 -946q-8 -14 -25 -15h-76q-23 0 -24 22l-116 942q-1 8 -1 11z" />
<glyph unicode="w" horiz-adv-x="1214" vert-adv-y="2528" d="M137 951v9q0 12 20 16l108 23q7 1 13 1q13 0 13 -23l-9 -650l-1 -37q-2 -49 -4 -99q28 64 64 136l314 640q8 16 26 16h82q16 -1 16 -16l13 -653v-26v-105q15 47 52 131l290 677q5 11 15 11q4 0 12 -2l100 -24q13 -3 13 -13q0 -4 -6 -15l-453 -946q-8 -15 -27 -16h-87 q-15 1 -16 17l-23 619q-1 15 -1 69v52q-25 -65 -54 -121l-311 -620q-7 -16 -26 -16h-83q-17 0 -18 17z" />
<glyph unicode="x" horiz-adv-x="796" vert-adv-y="2528" d="M-98 31q0 7 10 17l418 462l-192 417q-5 10 -5 16q-1 8 12 13l110 42q10 5 15 5q8 0 13 -12l121 -304q1 -4 5 -12q13 -30 21 -52q15 25 37 52l9 12l250 308q7 9 13 9q4 0 15 -5l106 -43q7 -3 7 -11t-7 -14l-379 -421l208 -462q5 -11 5 -15q0 -9 -9 -12l-120 -43 q-10 -4 -15 -4q-8 0 -12 10l-138 343q-16 39 -21 57q-8 -13 -36 -47l-299 -358q-5 -6 -10 -6t-15 4l-106 41q-11 4 -11 13z" />
<glyph unicode="y" horiz-adv-x="835" vert-adv-y="2528" d="M-197 -348q0 6 9 20l48 78q6 10 17 10q7 0 37 -19q65 -42 124 -42q120 0 213 172l70 129h-73q-21 0 -25 21l-134 911l-1 6q-1 4 -1 7q0 8 13 12l118 41q10 4 14 4q11 0 13 -16l117 -907l397 910q6 13 13 13q5 0 16 -4l97 -39q11 -5 11 -13q0 -4 -5 -15l-362 -809 q-114 -255 -198 -379q-118 -177 -307 -177q-95 0 -183 49q-38 21 -38 37z" />
<glyph unicode="z" horiz-adv-x="796" vert-adv-y="2528" d="M-45 15q0 3 2 11l17 81l657 749h-428q-17 0 -17 14q0 5 2 13l17 80q3 20 25 20h589q16 0 16 -15q0 -3 -2 -11l-17 -80l-639 -744h497q17 0 17 -12q0 -6 -8 -18l-58 -89q-10 -14 -26 -14h-628q-16 0 -16 15z" />
<glyph unicode="{" horiz-adv-x="948" vert-adv-y="2528" d="M164 499q0 4 2 13l15 71q6 24 30 24h45q96 2 147 46q48 40 69 137l78 366q34 163 129 237q101 75 281 72h39q20 0 20 -16q0 -5 -2 -15l-15 -71q-6 -25 -30 -24h-57q-97 -3 -145 -45q-48 -41 -69 -138l-77 -366q-23 -110 -83 -174q-41 -42 -117 -75q44 -24 65 -48 q39 -42 39 -110q0 -43 -9 -86l-87 -407q-7 -35 -7 -72q0 -77 57 -100q29 -12 86 -12h57q20 0 20 -17q0 -5 -2 -14l-15 -71q-6 -24 -30 -24h-38q-144 0 -212 47q-78 54 -78 166q0 47 11 97l86 407q19 97 -14 138q-31 44 -124 46h-44q-21 0 -21 18z" />
<glyph unicode="|" horiz-adv-x="1054" vert-adv-y="2528" d="M447 -351v1756h160v-1756h-160z" />
<glyph unicode="}" horiz-adv-x="948" vert-adv-y="2528" d="M-73 -403q0 4 2 14l15 71q6 25 30 24h57q97 3 145 45q49 43 69 138l77 366q23 112 83 174q41 42 117 75q-45 25 -65 48q-39 42 -39 115q0 38 9 81l87 407q7 34 7 71q0 78 -56 102q-28 11 -86 11h-58q-20 0 -20 18q0 4 2 13l15 71q6 25 30 24h38q143 0 212 -47 q78 -54 78 -168q0 -45 -11 -95l-86 -407q-3 -15 -5 -34q-8 -91 42 -126q33 -24 101 -24h44q21 0 21 -16q0 -5 -2 -15l-15 -71q-6 -25 -30 -24h-45q-97 -2 -147 -46q-48 -39 -69 -137l-77 -366q-36 -166 -130 -237q-103 -75 -281 -72h-38q-21 0 -21 17z" />
<glyph unicode="~" horiz-adv-x="1405" vert-adv-y="2528" d="M199 1292q39 81 83 134q83 101 200 101q82 0 242 -82q91 -46 124 -57q44 -15 80 -15q105 0 194 159l86 -68q-44 -88 -86 -138q-84 -98 -198 -98q-53 0 -128 31q-39 17 -114 54q-142 70 -206 70q-71 0 -125 -61q-31 -36 -66 -97z" />
<glyph unicode="&#xa0;" horiz-adv-x="421" vert-adv-y="2528" />
<glyph unicode="&#xa2;" vert-adv-y="2528" d="M240 519q0 192 76 366q83 187 217 268q74 46 186 59l28 133q5 26 30 25h49q20 0 20 -16q0 -7 -2 -16l-27 -126q110 -12 175 -57q20 -13 20 -25q0 -7 -2 -11l-53 -88q-5 -9 -16 -9q-7 0 -18 6q-72 43 -134 52l-162 -762q79 17 159 76q13 9 22 9t13 -10l32 -71q6 -12 6 -16 q0 -16 -42 -43q-95 -63 -219 -84l-32 -149q-6 -25 -30 -24h-48q-21 0 -21 18q0 4 2 13l30 142q-259 23 -259 340zM395 517q0 -171 133 -202l162 760q-60 -17 -96 -42q-87 -59 -143 -217q-56 -159 -56 -299z" />
<glyph unicode="&#xa3;" vert-adv-y="2528" d="M42 19q0 3 2 12l17 80q6 25 30 24h176q111 240 106 498h-190q-20 0 -20 19q0 3 2 12l17 80q6 25 30 24h159q-2 52 -2 80q0 230 131 367q126 133 355 133q152 0 269 -66q19 -10 19 -23q0 -6 -5 -17l-35 -74q-6 -12 -20 -12q-9 0 -36 15q-92 51 -202 51q-178 0 -266 -130 q-51 -76 -60 -211q-3 -38 -2 -113h278q21 0 21 -18q0 -4 -2 -13l-17 -80q-6 -25 -30 -24h-244q2 -144 -26 -267q-24 -105 -80 -231h547q21 0 21 -15q0 -7 -9 -20l-49 -82q-12 -18 -32 -18h-832q-21 0 -21 19z" />
<glyph unicode="&#xa5;" vert-adv-y="2528" d="M71 576q2 16 2 17l4 19q6 24 30 24h341l-33 116h-284q-20 0 -20 17q0 5 2 14l4 19q6 24 30 24h248l-149 524q-3 13 -3 18q0 11 18 16l111 31q10 3 18 3q10 0 14 -16l133 -548q15 -64 25 -159q19 37 42 78q34 61 46 81l351 553q7 11 16 11q7 0 16 -2l112 -30q13 -4 13 -12 q0 -11 -9 -24l-366 -524h247q21 0 21 -17q0 -4 -2 -14l-4 -19q-7 -25 -31 -24h-282l-81 -116h339q21 0 21 -16q0 -3 -3 -15l-4 -19q-6 -25 -30 -24h-359l-114 -538q-6 -25 -30 -24h-112q-20 0 -20 18q0 5 2 13l112 531h-362q-21 0 -20 14z" />
<glyph unicode="&#xa8;" vert-adv-y="2528" d="M380 1280q0 45 31 75q30 31 76 31q41 0 72 -31t31 -75q0 -43 -31 -74q-30 -30 -73 -30t-75 31q-31 30 -31 73zM754 1280q0 44 31 75t76 31q42 0 72 -31q31 -31 31 -75q0 -43 -31 -74q-30 -30 -73 -30t-75 31q-31 30 -31 73z" />
<glyph unicode="&#xa9;" horiz-adv-x="1453" vert-adv-y="2528" d="M105 641q0 234 121 433q104 172 269 269q151 89 327 89q168 0 315 -97q158 -104 233 -291q53 -132 53 -281q0 -231 -120 -430q-105 -173 -267 -269q-155 -91 -324 -91q-173 0 -319 96q-159 104 -235 292q-53 132 -53 280zM213 653q0 -243 144 -408q148 -169 366 -169 q166 0 311 105q129 95 205 248t76 322q0 245 -143 409q-147 169 -375 169q-225 0 -401 -195q-183 -203 -183 -481zM451 528q0 157 59 323q103 289 328 289q98 0 179 -65q18 -14 18 -28q0 -9 -7 -19l-32 -45q-9 -13 -20 -13q-12 0 -32 16q-55 45 -119 45q-89 0 -148 -115 q-42 -82 -67 -204q-21 -104 -21 -190q0 -148 104 -148q60 0 148 59q10 7 19 7q17 0 25 -15l21 -43q4 -8 4 -16q0 -15 -24 -31q-106 -71 -214 -71q-96 0 -151 56q-70 71 -70 208z" />
<glyph unicode="&#xab;" horiz-adv-x="1062" vert-adv-y="2528" d="M105 487q0 7 13 20l442 439q11 11 17 11q5 0 17 -7l61 -38q12 -7 12 -17q0 -6 -9 -16l-362 -400l174 -384q5 -12 5 -16q0 -12 -19 -21l-57 -28q-14 -7 -19 -7q-8 0 -14 11l-253 434q-8 14 -8 19zM484 487q0 7 13 20l442 439q11 11 17 11t17 -7l62 -38q11 -7 11 -17 q0 -6 -9 -16l-362 -400l174 -384q5 -11 5 -15q0 -13 -19 -22l-57 -28q-13 -7 -19 -7q-8 0 -14 11l-253 434q-8 14 -8 19z" />
<glyph unicode="&#xad;" horiz-adv-x="607" vert-adv-y="2528" d="M54 461q0 4 2 13l21 98q6 25 30 24h422q21 0 21 -17q0 -3 -3 -14l-20 -98q-6 -25 -31 -24h-421q-21 0 -21 18z" />
<glyph unicode="&#xae;" horiz-adv-x="1453" vert-adv-y="2528" d="M105 641q0 234 121 433q104 172 269 269q151 89 327 89q168 0 315 -97q158 -104 233 -291q53 -132 53 -281q0 -231 -120 -430q-105 -173 -267 -269q-155 -91 -324 -91q-173 0 -319 96q-159 104 -235 292q-53 132 -53 280zM213 653q0 -243 144 -408q148 -169 366 -169 q166 0 311 105q129 95 205 248t76 322q0 245 -143 409q-147 169 -375 169q-225 0 -401 -195q-183 -203 -183 -481zM432 309q0 2 2 12l167 783q7 25 32 25h185q87 0 135 -21q93 -41 93 -163q0 -141 -98 -223q-46 -39 -115 -55l134 -340q4 -10 4 -15q0 -19 -24 -23l-67 -12 q-8 -1 -11 -1q-18 0 -25 20l-135 360h-77l-74 -345q-5 -26 -32 -25h-66q-28 0 -28 23zM654 760h81q183 0 183 183q0 52 -42 69q-25 10 -79 10h-87z" />
<glyph unicode="&#xb4;" vert-adv-y="2528" d="M519 1196q0 7 11 14l319 222q11 8 16 8q9 0 19 -15l58 -95q6 -11 6 -16q0 -11 -14 -18l-355 -161q-9 -4 -14 -4q-8 0 -17 13l-22 35q-7 10 -7 17z" />
<glyph unicode="&#xb8;" vert-adv-y="2528" d="M268 -368q0 4 3 12l22 66q4 11 14 11q5 0 26 -6q33 -10 74 -10q90 0 90 56q0 23 -19 32q-15 7 -71 13q-31 4 -34 4q-14 4 -14 15q0 5 3 13l49 162h114l-33 -118q49 -9 74 -20q50 -22 50 -88q0 -70 -52 -118q-58 -54 -167 -54q-129 0 -129 30z" />
<glyph unicode="&#xbb;" horiz-adv-x="1062" vert-adv-y="2528" d="M0 84q0 7 9 17l362 400l-174 384q-5 11 -5 17q0 11 19 20l57 28q14 7 19 7q7 0 14 -11l253 -435q8 -14 8 -18q0 -7 -13 -20l-442 -439q-11 -11 -18 -11q-5 0 -16 7l-62 38q-11 7 -11 16zM379 85q0 6 9 16l362 400l-173 384q-6 12 -6 16q0 12 19 21l57 28q14 7 19 7 q8 0 15 -11l252 -435q8 -13 8 -18q0 -7 -13 -20l-442 -439q-10 -11 -18 -11q-4 0 -16 7l-61 38q-12 7 -12 17z" />
<glyph unicode="&#xc1;" horiz-adv-x="1025" vert-adv-y="2528" d="M-79 17q0 5 6 18l699 1351q10 19 32 19h102q18 0 23 -4q5 -5 7 -23l124 -1348q1 -13 1 -16q0 -14 -23 -14h-112q-17 0 -22 5q-5 4 -6 22l-32 394h-433l-203 -402q-10 -19 -32 -19h-107q-24 0 -24 17zM361 562h343l-31 452l-3 49q-5 87 -5 147q-40 -100 -86 -196z M600 1580q0 7 12 14l345 203q12 7 17 7q11 0 20 -16l56 -98q6 -11 6 -16q0 -11 -17 -17l-379 -141q-10 -3 -14 -3q-10 1 -18 14l-22 36q-6 10 -6 17z" />
<glyph unicode="&#xc4;" vert-adv-y="2528" d="M-79 17q0 5 6 18l699 1351q10 19 32 19h102q18 0 23 -4q5 -5 7 -23l124 -1348q1 -13 1 -16q0 -14 -23 -14h-112q-17 0 -22 5q-5 4 -6 22l-32 394h-433l-203 -402q-10 -19 -32 -19h-107q-24 0 -24 17zM361 562h343l-31 452l-3 49q-5 87 -5 147q-40 -100 -86 -196z M450 1648q0 46 31 77q32 32 79 32q42 0 73 -32q33 -32 33 -77q0 -44 -32 -76q-32 -31 -76 -31t-76 32q-32 31 -32 75zM835 1648q0 46 31 77q32 32 79 32q43 0 74 -32q32 -32 32 -77q0 -44 -32 -76q-32 -31 -76 -31t-76 32q-32 31 -32 75z" />
<glyph unicode="&#xc9;" horiz-adv-x="949" vert-adv-y="2528" d="M81 19q0 3 2 12l287 1350q7 25 30 24h625q21 0 21 -15q0 -6 -7 -20l-46 -91q-9 -19 -31 -19h-456l-98 -462h404q21 0 21 -17q0 -4 -2 -14l-17 -81q-6 -25 -30 -24h-405l-110 -517h495q20 0 20 -17q0 -6 -2 -14l-19 -90q-5 -25 -30 -24h-631q-21 0 -21 19zM618 1580 q0 7 12 14l345 203q12 7 17 7q11 0 20 -16l56 -98q6 -11 6 -16q0 -11 -17 -17l-379 -141q-10 -3 -14 -3q-10 1 -18 14l-22 36q-6 10 -6 17z" />
<glyph unicode="&#xcd;" horiz-adv-x="683" vert-adv-y="2528" d="M-57 18q0 4 2 13l15 71q6 25 30 24h185l245 1153h-185q-20 0 -20 18q0 4 2 13l15 71q6 25 30 24h531q20 0 20 -16q0 -6 -2 -15l-15 -71q-7 -25 -30 -24h-185l-245 -1153h184q21 0 21 -16q0 -5 -2 -15l-15 -71q-6 -25 -30 -24h-530q-21 0 -21 18zM429 1580q0 7 12 14 l345 203q12 7 17 7q11 0 20 -16l56 -98q6 -11 6 -16q0 -11 -17 -17l-379 -141q-10 -3 -14 -3q-10 1 -18 14l-22 36q-6 10 -6 17z" />
<glyph unicode="&#xd3;" horiz-adv-x="1100" vert-adv-y="2528" d="M105 390q0 299 106 597q160 446 521 446q184 0 262 -108q76 -104 76 -298q0 -230 -72 -496q-150 -559 -551 -559q-188 0 -266 108q-76 105 -76 310zM268 382q0 -157 52 -223q42 -52 136 -52q143 0 243 137q95 131 161 418q47 202 47 355q0 165 -52 229q-42 52 -140 52 q-212 0 -334 -331q-57 -153 -90 -338q-23 -133 -23 -247zM638 1580q0 7 12 14l345 203q12 7 17 7q11 0 20 -16l56 -98q6 -11 6 -16q0 -11 -17 -17l-379 -141q-10 -3 -14 -3q-10 1 -18 14l-22 36q-6 10 -6 17z" />
<glyph unicode="&#xd4;" horiz-adv-x="1100" vert-adv-y="2528" d="M105 390q0 299 106 597q160 446 521 446q184 0 262 -108q76 -104 76 -298q0 -230 -72 -496q-150 -559 -551 -559q-188 0 -266 108q-76 105 -76 310zM268 382q0 -157 52 -223q42 -52 136 -52q143 0 243 137q95 131 161 418q47 202 47 355q0 165 -52 229q-42 52 -140 52 q-212 0 -334 -331q-57 -153 -90 -338q-23 -133 -23 -247zM525 1603q0 9 13 17l261 157q14 8 21 8t20 -11l204 -173q10 -9 10 -15q0 -7 -10 -17l-30 -34q-11 -12 -19 -12q-4 0 -20 10l-173 105l-205 -103q-15 -8 -21 -8q-9 0 -15 11l-28 46q-8 13 -8 19z" />
<glyph unicode="&#xd6;" horiz-adv-x="1100" vert-adv-y="2528" d="M105 390q0 299 106 597q160 446 521 446q184 0 262 -108q76 -104 76 -298q0 -230 -72 -496q-150 -559 -551 -559q-188 0 -266 108q-76 105 -76 310zM268 382q0 -157 52 -223q42 -52 136 -52q143 0 243 137q95 131 161 418q47 202 47 355q0 165 -52 229q-42 52 -140 52 q-212 0 -334 -331q-57 -153 -90 -338q-23 -133 -23 -247zM487 1648q0 46 32 77q31 32 78 32q43 0 74 -32q32 -32 32 -77q0 -44 -32 -76q-32 -31 -75 -31q-44 0 -77 32q-32 31 -32 75zM872 1648q0 46 31 77q32 32 79 32q43 0 74 -32q32 -32 32 -77q0 -44 -32 -76 q-31 -31 -75 -31q-45 0 -77 32q-32 31 -32 75z" />
<glyph unicode="&#xda;" horiz-adv-x="1176" vert-adv-y="2528" d="M128 257q0 59 15 129l211 995q7 25 30 24h112q20 0 20 -16q0 -7 -2 -15l-210 -988q-14 -67 -14 -109q0 -84 47 -121q53 -44 164 -44q136 0 225 74q76 62 105 200l211 995q7 25 31 24h105q21 0 21 -16q0 -5 -2 -15l-210 -988q-25 -119 -57 -179q-127 -235 -453 -235 q-179 0 -263 69q-86 72 -86 216zM676 1580q0 7 12 14l345 203q12 7 17 7q11 0 20 -16l56 -98q6 -11 6 -16q0 -11 -17 -17l-379 -141q-10 -3 -14 -3q-10 1 -18 14l-22 36q-6 10 -6 17z" />
<glyph unicode="&#xdc;" horiz-adv-x="1176" vert-adv-y="2528" d="M128 257q0 59 15 129l211 995q7 25 30 24h112q20 0 20 -16q0 -7 -2 -15l-210 -988q-14 -67 -14 -109q0 -84 47 -121q53 -44 164 -44q136 0 225 74q76 62 105 200l211 995q7 25 31 24h105q21 0 21 -16q0 -5 -2 -15l-210 -988q-25 -119 -57 -179q-127 -235 -453 -235 q-179 0 -263 69q-86 72 -86 216zM526 1648q0 46 31 77q32 32 79 32q43 0 74 -32q32 -32 32 -77q0 -44 -32 -76q-31 -31 -75 -31t-77 32q-32 31 -32 75zM911 1648q0 46 31 77q32 32 79 32q43 0 74 -32q32 -32 32 -77q0 -44 -32 -76q-32 -31 -76 -31t-76 32q-32 31 -32 75z " />
<glyph unicode="&#xdd;" horiz-adv-x="835" vert-adv-y="2528" d="M133 1367q0 12 20 18l117 33q16 3 18 3q11 0 15 -21l129 -546q18 -85 23 -138q35 62 83 138l345 549q11 18 19 18q4 0 16 -3l114 -31q17 -5 17 -14t-9 -22l-528 -757l-121 -570q-5 -25 -30 -24h-112q-20 0 -20 17q0 4 2 14l119 563l-213 756q-4 13 -4 17zM506 1580 q0 7 12 14l345 203q12 7 17 7q11 0 20 -16l56 -98q6 -11 6 -16q0 -11 -17 -17l-379 -141q-10 -3 -14 -3q-10 1 -18 14l-22 36q-6 10 -6 17z" />
<glyph unicode="&#xdf;" horiz-adv-x="1062" vert-adv-y="2528" d="M-334 -383l1 13l29 84q6 18 14 18q4 0 9 -1q64 -17 122 -17q107 0 157 82q37 60 56 155l231 1166q30 151 89 227q100 130 314 130q120 0 200 -52q96 -63 96 -197q0 -101 -64 -176q-35 -41 -156 -130q-79 -58 -79 -110q0 -47 42 -100q19 -24 113 -136q61 -73 83 -109 q45 -76 45 -164q0 -108 -58 -195q-50 -75 -143 -109q-68 -24 -144 -24q-90 0 -181 34q-64 24 -62 37l2 16l39 88q5 12 19 12q9 0 28 -10q87 -44 162 -44q78 0 136 44q64 49 64 134q0 74 -41 135q-17 26 -133 161q-67 78 -86 116q-22 43 -22 93q0 84 56 141q30 30 139 112 q101 76 101 170q0 64 -44 101q-50 42 -131 42q-133 0 -194 -102q-30 -52 -46 -135l-228 -1174q-30 -156 -91 -237q-93 -123 -287 -123q-82 0 -138 19q-20 6 -19 15z" />
<glyph unicode="&#xe1;" horiz-adv-x="986" vert-adv-y="2528" d="M72 275q0 138 43 287q48 164 131 281q120 168 298 168q96 0 160 -50q24 -19 60 -59l28 64q7 18 26 17h83q16 0 16 -12l-2 -14l-144 -675q-10 -48 -10 -118q0 -61 12 -109q4 -15 4 -22q0 -11 -11 -15l-96 -39q-7 -3 -12 -3q-10 0 -17 15q-22 47 -22 122q0 29 4 78 q-142 -219 -334 -219q-94 0 -150 69q-67 82 -67 234zM228 284q0 -172 112 -172q48 0 103 32q172 98 229 365l59 278q-97 90 -194 90q-69 0 -120 -45t-99 -147q-45 -99 -71 -225q-19 -96 -19 -176zM503 1196q0 7 11 14l319 222q11 8 16 8q9 0 19 -15l58 -95q6 -11 6 -16 q0 -11 -14 -18l-355 -161q-9 -4 -14 -4q-8 0 -17 13l-22 35q-7 10 -7 17z" />
<glyph unicode="&#xe4;" horiz-adv-x="986" vert-adv-y="2528" d="M72 275q0 138 43 287q48 164 131 281q120 168 298 168q96 0 160 -50q24 -19 60 -59l28 64q7 18 26 17h83q16 0 16 -12l-2 -14l-144 -675q-10 -48 -10 -118q0 -61 12 -109q4 -15 4 -22q0 -11 -11 -15l-96 -39q-7 -3 -12 -3q-10 0 -17 15q-22 47 -22 122q0 29 4 78 q-142 -219 -334 -219q-94 0 -150 69q-67 82 -67 234zM228 284q0 -172 112 -172q48 0 103 32q172 98 229 365l59 278q-97 90 -194 90q-69 0 -120 -45t-99 -147q-45 -99 -71 -225q-19 -96 -19 -176zM374 1280q0 45 31 75q30 31 76 31q41 0 72 -31t31 -75q0 -43 -31 -74 q-30 -30 -73 -30t-75 31q-31 30 -31 73zM748 1280q0 44 31 75t76 31q42 0 72 -31q31 -31 31 -75q0 -43 -31 -74q-30 -30 -73 -30t-75 31q-31 30 -31 73z" />
<glyph unicode="&#xe9;" horiz-adv-x="910" vert-adv-y="2528" d="M68 345q0 190 81 356q152 310 437 310q137 0 207 -77q64 -71 64 -185q0 -133 -89 -221q-97 -95 -301 -122q-98 -14 -244 -16l-1 -13q-1 -32 -1 -38q0 -113 51 -176q42 -51 143 -51q135 0 264 88q20 13 29 13t17 -12l51 -75q2 -3 2 -9q0 -9 -21 -24q-170 -121 -357 -121 q-170 0 -255 104q-77 94 -77 269zM242 516q469 0 469 227q0 141 -148 141q-243 0 -321 -368zM455 1196q0 7 11 14l319 222q11 8 16 8q9 0 19 -15l58 -95q6 -11 6 -16q0 -11 -14 -18l-355 -161q-9 -4 -14 -4q-8 0 -17 13l-22 35q-7 10 -7 17z" />
<glyph unicode="&#xed;" horiz-adv-x="531" vert-adv-y="2528" d="M103 877q0 2 2 13l15 73q5 20 25 20h295q15 0 15 -16q0 -3 -2 -10l-199 -937q-4 -20 -25 -20h-107q-16 0 -16 15q0 3 2 11l178 838h-167q-16 0 -16 13zM259 1196q0 7 11 14l319 222q11 8 16 8q9 0 19 -15l58 -95q6 -11 6 -16q0 -11 -14 -18l-355 -161q-9 -4 -14 -4 q-8 0 -17 13l-22 35q-7 10 -7 17z" />
<glyph unicode="&#xf3;" horiz-adv-x="987" vert-adv-y="2528" d="M67 316q0 287 156 509q131 186 371 186q134 0 215 -73q96 -87 96 -272q0 -174 -71 -347q-78 -190 -212 -276q-110 -71 -247 -71q-308 0 -308 344zM223 316q0 -211 177 -211q166 0 255 176q36 71 64 176q30 111 30 206q0 214 -185 214q-161 0 -254 -179q-40 -76 -64 -184 q-23 -102 -23 -198zM570 1196q0 7 11 14l319 222q11 8 16 8q9 0 19 -15l58 -95q6 -11 6 -16q0 -11 -14 -18l-355 -161q-9 -4 -14 -4q-8 0 -17 13l-22 35q-7 10 -7 17z" />
<glyph unicode="&#xf4;" horiz-adv-x="986" vert-adv-y="2528" d="M67 316q0 287 156 509q131 186 371 186q134 0 215 -73q96 -87 96 -272q0 -174 -71 -347q-78 -190 -212 -276q-110 -71 -247 -71q-308 0 -308 344zM223 316q0 -211 177 -211q166 0 255 176q36 71 64 176q30 111 30 206q0 214 -185 214q-161 0 -254 -179q-40 -76 -64 -184 q-23 -102 -23 -198zM389 1231q0 9 13 17l248 171q13 9 19 9q8 0 20 -12l194 -187q9 -9 9 -15q0 -8 -8 -17l-29 -34q-11 -12 -18 -12q-6 0 -20 10l-164 119l-195 -117q-13 -8 -20 -8q-9 0 -15 11l-27 46q-7 13 -7 19z" />
<glyph unicode="&#xf6;" horiz-adv-x="987" vert-adv-y="2528" d="M67 316q0 287 156 509q131 186 371 186q134 0 215 -73q96 -87 96 -272q0 -174 -71 -347q-78 -190 -212 -276q-110 -71 -247 -71q-308 0 -308 344zM223 316q0 -211 177 -211q166 0 255 176q36 71 64 176q30 111 30 206q0 214 -185 214q-161 0 -254 -179q-40 -76 -64 -184 q-23 -102 -23 -198zM361 1280q0 45 31 75q30 31 76 31q41 0 72 -31t31 -75q0 -43 -31 -74q-30 -30 -73 -30t-75 31q-31 30 -31 73zM735 1280q0 44 31 75t76 31q42 0 72 -31q31 -31 31 -75q0 -43 -31 -74q-30 -30 -73 -30t-75 31q-31 30 -31 73z" />
<glyph unicode="&#xfa;" vert-adv-y="2528" d="M94 168q0 61 17 140l138 650q4 18 22 22l107 24q7 2 11 2q14 0 14 -16q0 -3 -1 -10l-135 -632q-17 -78 -17 -134q0 -102 100 -102q71 0 149 46q105 62 151 161q22 46 41 135l107 504q5 19 22 22l106 24q8 2 13 2q13 0 13 -12q0 -6 -2 -14l-152 -716q-11 -54 -11 -99 q0 -54 22 -108q3 -6 3 -12q0 -10 -9 -14l-96 -49q-12 -6 -19 -6q-10 0 -18 15q-20 36 -20 116q0 30 4 58q-51 -56 -89 -89q-121 -104 -256 -104q-105 0 -163 59q-52 52 -52 137zM520 1196q0 7 11 14l319 222q11 8 16 8q9 0 19 -15l58 -95q6 -11 6 -16q0 -11 -14 -18 l-355 -161q-9 -4 -14 -4q-8 0 -17 13l-22 35q-7 10 -7 17z" />
<glyph unicode="&#xfc;" vert-adv-y="2528" d="M94 168q0 61 17 140l138 650q4 18 22 22l107 24q7 2 11 2q14 0 14 -16q0 -3 -1 -10l-135 -632q-17 -78 -17 -134q0 -102 100 -102q71 0 149 46q105 62 151 161q22 46 41 135l107 504q5 19 22 22l106 24q8 2 13 2q13 0 13 -12q0 -6 -2 -14l-152 -716q-11 -54 -11 -99 q0 -54 22 -108q3 -6 3 -12q0 -10 -9 -14l-96 -49q-12 -6 -19 -6q-10 0 -18 15q-20 36 -20 116q0 30 4 58q-51 -56 -89 -89q-121 -104 -256 -104q-105 0 -163 59q-52 52 -52 137zM380 1280q0 45 31 75q30 31 76 31q41 0 72 -31t31 -75q0 -43 -31 -74q-30 -30 -73 -30t-75 31 q-31 30 -31 73zM754 1280q0 44 31 75t76 31q42 0 72 -31q31 -31 31 -75q0 -43 -31 -74q-30 -30 -73 -30t-75 31q-31 30 -31 73z" />
<glyph unicode="&#xfd;" horiz-adv-x="835" vert-adv-y="2528" d="M-197 -348q0 6 9 20l48 78q6 10 17 10q7 0 37 -19q65 -42 124 -42q120 0 213 172l70 129h-73q-21 0 -25 21l-134 911l-1 6q-1 4 -1 7q0 8 13 12l118 41q10 4 14 4q11 0 13 -16l117 -907l397 910q6 13 13 13q5 0 16 -4l97 -39q11 -5 11 -13q0 -4 -5 -15l-362 -809 q-114 -255 -198 -379q-118 -177 -307 -177q-95 0 -183 49q-38 21 -38 37zM425 1196q0 7 11 14l319 222q11 8 16 8q9 0 19 -15l58 -95q6 -11 6 -16q0 -11 -14 -18l-355 -161q-9 -4 -14 -4q-8 0 -17 13l-22 35q-7 10 -7 17z" />
<glyph unicode="&#x10c;" horiz-adv-x="872" vert-adv-y="2528" d="M102 384q0 272 102 566q80 233 197 353q126 130 311 130q149 0 269 -106q19 -17 19 -29q0 -8 -8 -19l-51 -78q-7 -12 -16 -12q-11 0 -35 22q-91 82 -202 82q-95 0 -170 -82q-104 -114 -167 -342q-75 -274 -75 -495q0 -137 56 -207q44 -55 125 -55q110 0 252 108 q10 8 18 8q13 0 19 -15l32 -73q5 -11 5 -17q0 -12 -30 -33q-166 -118 -328 -118q-147 0 -224 88q-99 113 -99 324zM511 1738q0 7 10 18l28 30q13 14 20 14q5 0 21 -10l173 -105l205 103q15 8 21 8q9 0 16 -12l28 -47q7 -12 7 -17q0 -8 -10 -14l-265 -160q-12 -7 -21 -7 q-7 0 -18 9l-203 172q-12 10 -12 18z" />
<glyph unicode="&#x10d;" horiz-adv-x="796" vert-adv-y="2528" d="M66 313q0 193 77 368q145 330 459 330q144 0 231 -63q20 -15 10 -33l-52 -87q-5 -8 -16 -8q-9 0 -25 10q-82 47 -164 47q-165 0 -256 -151q-42 -70 -73 -182q-35 -123 -35 -229q0 -203 184 -203q104 0 207 75q17 13 27 13q11 0 15 -10l36 -82q1 -2 1 -7q0 -14 -44 -42 q-134 -87 -292 -87q-290 0 -290 341zM407 1366q0 7 10 18l26 30q12 14 19 14t20 -10l165 -119l195 117q13 8 20 8q9 0 15 -12l28 -47q6 -12 6 -17q0 -7 -10 -14l-252 -174q-12 -8 -18 -8q-9 0 -20 11l-193 185q-11 11 -11 18z" />
<glyph unicode="&#x10e;" horiz-adv-x="1100" vert-adv-y="2528" d="M81 16q0 5 2 15l287 1350q7 25 30 24h210q128 0 187 -10q278 -45 278 -371q0 -286 -122 -597q-126 -324 -368 -398q-93 -29 -222 -29h-261q-21 0 -21 16zM269 145h144q179 0 278 138q90 126 154 346q62 216 62 387q0 166 -94 216q-52 28 -168 28h-139zM527 1738 q0 7 10 18l28 30q13 14 20 14q5 0 21 -10l173 -105l205 103q15 8 21 8q9 0 16 -12l28 -47q7 -12 7 -17q0 -8 -10 -14l-265 -160q-12 -7 -21 -7q-7 0 -18 9l-203 172q-12 10 -12 18z" />
<glyph unicode="&#x10f;" horiz-adv-x="1112" vert-adv-y="2528" d="M74 273q0 192 69 387q125 351 404 351q112 0 217 -67l104 489q4 18 21 22l107 26q7 2 13 2q13 0 13 -12q0 -6 -2 -13l-243 -1145q-11 -52 -11 -113q0 -67 17 -133q3 -10 3 -16q0 -11 -11 -17l-98 -53q-10 -5 -17 -5q-11 0 -18 20q-21 59 -21 147q0 13 1 38 q-142 -209 -326 -209q-222 0 -222 301zM230 275q0 -163 105 -163q112 0 217 114q49 52 75 116q20 48 40 144l69 328q-52 32 -81 44q-45 19 -100 19q-101 0 -163 -62q-63 -64 -113 -236q-49 -166 -49 -304zM1025 1088q0 5 5 17l148 351q9 19 30 19h150q20 0 20 -14 q0 -6 -9 -20l-264 -377q-8 -11 -16 -11q-5 0 -17 5l-34 15q-13 6 -13 15z" />
<glyph unicode="&#x11a;" horiz-adv-x="948" vert-adv-y="2528" d="M81 19q0 3 2 12l287 1350q7 25 30 24h625q21 0 21 -15q0 -6 -7 -20l-46 -91q-9 -19 -31 -19h-456l-98 -462h404q21 0 21 -17q0 -4 -2 -14l-17 -81q-6 -25 -30 -24h-405l-110 -517h495q20 0 20 -17q0 -6 -2 -14l-19 -90q-5 -25 -30 -24h-631q-21 0 -21 19zM451 1738 q0 7 10 18l28 30q13 14 20 14q5 0 21 -10l173 -105l205 103q15 8 21 8q9 0 16 -12l28 -47q7 -12 7 -17q0 -8 -10 -14l-265 -160q-12 -7 -21 -7q-7 0 -18 9l-203 172q-12 10 -12 18z" />
<glyph unicode="&#x11b;" horiz-adv-x="910" vert-adv-y="2528" d="M68 345q0 190 81 356q152 310 437 310q137 0 207 -77q64 -71 64 -185q0 -133 -89 -221q-97 -95 -301 -122q-98 -14 -244 -16l-1 -13q-1 -32 -1 -38q0 -113 51 -176q42 -51 143 -51q135 0 264 88q20 13 29 13t17 -12l51 -75q2 -3 2 -9q0 -9 -21 -24q-170 -121 -357 -121 q-170 0 -255 104q-77 94 -77 269zM242 516q469 0 469 227q0 141 -148 141q-243 0 -321 -368zM380 1366q0 7 10 18l26 30q12 14 19 14t20 -10l165 -119l195 117q13 8 20 8q9 0 15 -12l28 -47q6 -12 6 -17q0 -7 -10 -14l-252 -174q-12 -8 -18 -8q-9 0 -20 11l-193 185 q-11 11 -11 18z" />
<glyph unicode="&#x139;" horiz-adv-x="835" vert-adv-y="2528" d="M81 19q0 3 2 12l287 1350q7 25 30 24h112q20 0 20 -18q0 -4 -2 -13l-261 -1229h519q22 0 21 -15q0 -6 -8 -20l-51 -92q-10 -18 -32 -18h-616q-21 0 -21 19zM435 1580q0 7 12 14l345 203q12 7 17 7q11 0 20 -16l56 -98q6 -11 6 -16q0 -11 -17 -17l-379 -141q-10 -3 -14 -3 q-10 1 -18 14l-22 36q-6 10 -6 17z" />
<glyph unicode="&#x13a;" horiz-adv-x="493" vert-adv-y="2528" d="M84 126q0 69 38 246l226 1061q4 19 22 22l106 27q9 2 13 2q13 0 13 -12q0 -2 -1 -14l-231 -1086q-32 -149 -32 -206q0 -68 62 -68q41 0 85 26q13 8 20 8q13 0 15 -13l9 -70q1 -7 1 -13q0 -15 -25 -27q-77 -37 -155 -37q-75 0 -118 38q-48 42 -48 116zM334 1580q0 7 13 14 l345 203q11 7 16 7q11 0 20 -16l56 -98q6 -10 6 -16q0 -11 -16 -17l-379 -141q-10 -3 -14 -3q-11 1 -19 14l-21 36q-7 11 -7 17z" />
<glyph unicode="&#x13d;" horiz-adv-x="835" vert-adv-y="2528" d="M81 19q0 3 2 12l287 1350q7 25 30 24h112q20 0 20 -18q0 -4 -2 -13l-261 -1229h519q22 0 21 -15q0 -6 -8 -20l-51 -92q-10 -18 -32 -18h-616q-21 0 -21 19zM647 1018q0 5 5 16l156 352q8 19 31 19h157q21 0 21 -13q0 -9 -9 -21l-277 -378q-9 -11 -16 -11q-5 0 -19 6 l-35 15q-14 5 -14 15z" />
<glyph unicode="&#x13e;" horiz-adv-x="591" vert-adv-y="2528" d="M84 126q0 69 38 246l226 1061q4 19 22 22l106 27q9 2 13 2q13 0 13 -12q0 -2 -1 -14l-231 -1086q-32 -149 -32 -206q0 -68 62 -68q41 0 85 26q13 8 20 8q13 0 15 -13l9 -70q1 -7 1 -13q0 -15 -25 -27q-77 -37 -155 -37q-75 0 -118 38q-48 42 -48 116zM504 1088q0 5 5 17 l148 351q9 19 30 19h150q20 0 20 -14q0 -6 -9 -20l-264 -377q-8 -11 -16 -11q-5 0 -17 5l-34 15q-13 6 -13 15z" />
<glyph unicode="&#x147;" horiz-adv-x="1138" vert-adv-y="2528" d="M63 18q0 4 2 13l287 1350q7 25 30 24h121q25 1 30 -24l222 -981q20 -83 30 -159q-2 76 15 159l209 981q6 25 30 24h89q18 0 20 -16q1 -5 -2 -15l-287 -1350q-6 -25 -30 -24h-101q-25 0 -30 24l-235 1041q-15 60 -25 151q-4 -103 -17 -159l-219 -1033q-6 -25 -30 -24h-88 q-21 0 -21 18zM546 1738q0 7 10 18l28 30q13 14 20 14q5 0 21 -10l173 -105l205 103q15 8 21 8q9 0 16 -12l28 -47q7 -12 7 -17q0 -8 -10 -14l-265 -160q-12 -7 -21 -7q-7 0 -18 9l-203 172q-12 10 -12 18z" />
<glyph unicode="&#x148;" vert-adv-y="2528" d="M61 13q0 5 2 13l146 690q14 63 14 103q0 53 -15 109q-2 8 -2 13q0 11 9 15l90 45q13 6 21 6q12 0 19 -14q20 -43 20 -127q0 -20 -4 -72q80 107 163 156q105 61 213 61q82 0 135 -43q51 -41 51 -119q0 -54 -19 -145l-146 -684q-4 -20 -25 -20h-106q-17 0 -17 13q0 2 2 13 l144 678q11 51 11 82q0 91 -92 91q-78 0 -161 -59q-159 -115 -210 -350l-95 -448q-4 -20 -25 -20h-107q-16 0 -16 13zM436 1366q0 7 10 18l26 30q12 14 19 14t20 -10l165 -119l195 117q13 8 20 8q9 0 15 -12l28 -47q6 -12 6 -17q0 -7 -10 -14l-252 -174q-12 -8 -18 -8 q-9 0 -20 11l-193 185q-11 11 -11 18z" />
<glyph unicode="&#x154;" horiz-adv-x="1025" vert-adv-y="2528" d="M81 19q0 3 2 12l287 1350q7 25 30 24h293q135 0 206 -35q129 -63 129 -247q0 -125 -50 -233q-90 -194 -303 -238l211 -613q5 -13 5 -18q0 -12 -20 -16l-114 -20q-9 -2 -13 -2q-13 0 -19 18l-209 639h-142l-131 -616q-5 -25 -30 -24h-111q-21 0 -21 19zM402 770h156 q142 0 223 85q43 46 66 136q16 66 16 121q0 102 -72 137q-43 20 -126 20h-157zM600 1580q0 7 12 14l345 203q12 7 17 7q11 0 20 -16l56 -98q6 -11 6 -16q0 -11 -17 -17l-379 -141q-10 -3 -14 -3q-10 1 -18 14l-22 36q-6 10 -6 17z" />
<glyph unicode="&#x155;" horiz-adv-x="607" vert-adv-y="2528" d="M61 13q0 5 2 13l132 623q23 106 23 156q0 42 -18 119q-2 10 -2 16q0 15 16 22l87 40q12 5 20 5q16 0 25 -29q18 -60 18 -117q0 -19 -3 -48q50 74 83 105q100 93 203 93q79 0 79 -28q0 -2 -2 -7l-48 -112q-5 -13 -14 -13q-4 0 -24 5q-22 6 -46 6q-70 0 -148 -87 q-73 -82 -107 -178q-12 -34 -32 -127l-96 -450q-4 -20 -25 -20h-107q-16 0 -16 13zM367 1196q0 7 11 14l319 222q11 8 16 8q9 0 19 -15l58 -95q6 -11 6 -16q0 -11 -14 -18l-355 -161q-9 -4 -14 -4q-8 0 -17 13l-22 35q-7 10 -7 17z" />
<glyph unicode="&#x158;" horiz-adv-x="1025" vert-adv-y="2528" d="M81 19q0 3 2 12l287 1350q7 25 30 24h293q135 0 206 -35q129 -63 129 -247q0 -125 -50 -233q-90 -194 -303 -238l211 -613q5 -13 5 -18q0 -12 -20 -16l-114 -20q-9 -2 -13 -2q-13 0 -19 18l-209 639h-142l-131 -616q-5 -25 -30 -24h-111q-21 0 -21 19zM402 770h156 q142 0 223 85q43 46 66 136q16 66 16 121q0 102 -72 137q-43 20 -126 20h-157zM489 1738q0 7 10 18l28 30q13 14 20 14q5 0 21 -10l173 -105l205 103q15 8 21 8q9 0 16 -12l28 -47q7 -12 7 -17q0 -8 -10 -14l-265 -160q-12 -7 -21 -7q-7 0 -18 9l-203 172q-12 10 -12 18z " />
<glyph unicode="&#x159;" horiz-adv-x="607" vert-adv-y="2528" d="M61 13q0 5 2 13l132 623q23 106 23 156q0 42 -18 119q-2 10 -2 16q0 15 16 22l87 40q12 5 20 5q16 0 25 -29q18 -60 18 -117q0 -19 -3 -48q50 74 83 105q100 93 203 93q79 0 79 -28q0 -2 -2 -7l-48 -112q-5 -13 -14 -13q-4 0 -24 5q-22 6 -46 6q-70 0 -148 -87 q-73 -82 -107 -178q-12 -34 -32 -127l-96 -450q-4 -20 -25 -20h-107q-16 0 -16 13zM228 1366q0 7 10 18l26 30q12 14 19 14t20 -10l165 -119l195 117q13 8 20 8q9 0 15 -12l28 -47q6 -12 6 -17q0 -7 -10 -14l-252 -174q-12 -8 -18 -8q-9 0 -20 11l-193 185q-11 11 -11 18z " />
<glyph unicode="&#x160;" horiz-adv-x="911" vert-adv-y="2528" d="M-11 85q0 7 5 16l55 94q6 10 16 10q7 0 21 -10q43 -31 114 -57q70 -26 144 -26q131 0 203 76q76 80 76 205q0 92 -50 159q-41 56 -165 154q-112 89 -153 147q-58 84 -58 190q0 118 70 220q115 170 381 170q165 0 273 -70q34 -23 34 -35q0 -9 -6 -17l-57 -91 q-7 -10 -18 -10q-10 0 -42 23q-94 67 -197 67q-124 0 -197 -74q-71 -73 -71 -177q0 -71 50 -129q34 -40 147 -129q112 -89 163 -160q70 -97 70 -221q0 -136 -75 -251q-121 -187 -394 -187q-179 0 -316 86q-23 14 -23 27zM433 1738q0 7 10 18l28 30q13 14 20 14q5 0 21 -10 l173 -105l205 103q15 8 21 8q9 0 16 -12l28 -47q7 -12 7 -17q0 -8 -10 -14l-265 -160q-12 -7 -21 -7q-7 0 -18 9l-203 172q-12 10 -12 18z" />
<glyph unicode="&#x161;" horiz-adv-x="759" vert-adv-y="2528" d="M-29 70q0 5 3 11l39 87q6 13 19 13q10 0 31 -13q48 -28 119 -47q57 -16 107 -16q80 0 128 40q59 48 59 129q0 69 -50 116q-24 23 -145 104q-75 50 -104 103q-28 50 -28 113q0 100 61 180q92 121 280 121q134 0 216 -54q18 -13 18 -26q0 -9 -4 -17l-36 -70q-7 -14 -24 -14 q-9 0 -26 8q-79 39 -157 39q-89 0 -137 -48q-39 -40 -39 -100q0 -52 41 -92q24 -23 130 -93q80 -54 114 -103q40 -59 40 -137q0 -100 -55 -186q-92 -146 -305 -146q-165 0 -282 78q-13 9 -13 20zM304 1366q0 7 10 18l26 30q12 14 19 14t20 -10l165 -119l195 117q13 8 20 8 q9 0 15 -12l28 -47q6 -12 6 -17q0 -7 -10 -14l-252 -174q-12 -8 -18 -8q-9 0 -20 11l-193 185q-11 11 -11 18z" />
<glyph unicode="&#x164;" horiz-adv-x="796" vert-adv-y="2528" d="M149 1278q0 4 2 13l19 90q7 24 30 24h795q21 0 21 -15q0 -7 -6 -20l-47 -91q-8 -19 -31 -19h-297l-263 -1236q-6 -25 -30 -24h-111q-21 0 -21 16q0 5 2 15l261 1229h-303q-21 0 -21 18zM376 1738q0 7 10 18l28 30q13 14 20 14q5 0 21 -10l173 -105l205 103q15 8 21 8 q9 0 16 -12l28 -47q7 -12 7 -17q0 -8 -10 -14l-265 -160q-12 -7 -21 -7q-7 0 -18 9l-203 172q-12 10 -12 18z" />
<glyph unicode="&#x165;" horiz-adv-x="645" vert-adv-y="2528" d="M89 877q0 5 2 13l16 73q4 20 24 20h150l60 284q4 17 21 22l108 30q10 3 15 3q15 0 10 -26l-67 -313h278q17 0 17 -12q0 -5 -6 -16l-36 -75q-8 -16 -26 -16h-252l-121 -566q-11 -54 -11 -99q0 -94 90 -94q68 0 185 52q7 4 13 4q10 0 12 -11l12 -70q1 -6 1 -11 q0 -19 -26 -32q-125 -65 -243 -65q-197 0 -197 200q0 46 17 126l120 566h-150q-16 0 -16 13zM530 1088q0 5 5 17l148 351q9 19 30 19h150q20 0 20 -14q0 -6 -9 -20l-264 -377q-8 -11 -16 -11q-5 0 -17 5l-34 15q-13 6 -13 15z" />
<glyph unicode="&#x16e;" horiz-adv-x="1176" vert-adv-y="2528" d="M128 257q0 59 15 129l211 995q7 25 30 24h112q20 0 20 -16q0 -7 -2 -15l-210 -988q-14 -67 -14 -109q0 -84 47 -121q53 -44 164 -44q136 0 225 74q76 62 105 200l211 995q7 25 31 24h105q21 0 21 -16q0 -5 -2 -15l-210 -988q-25 -119 -57 -179q-127 -235 -453 -235 q-179 0 -263 69q-86 72 -86 216zM605 1645q0 79 55 133q57 55 141 55q77 0 132 -55q55 -56 55 -131q0 -76 -55 -131q-56 -55 -136 -55t-137 55q-55 54 -55 129zM705 1647q0 -41 27 -69t64 -28q36 0 64 28q27 27 27 67q0 42 -27 71q-26 28 -66 28q-36 0 -62 -28 q-27 -29 -27 -69z" />
<glyph unicode="&#x16f;" vert-adv-y="2528" d="M94 168q0 61 17 140l138 650q4 18 22 22l107 24q7 2 11 2q14 0 14 -16q0 -3 -1 -10l-135 -632q-17 -78 -17 -134q0 -102 100 -102q71 0 149 46q105 62 151 161q22 46 41 135l107 504q5 19 22 22l106 24q8 2 13 2q13 0 13 -12q0 -6 -2 -14l-152 -716q-11 -54 -11 -99 q0 -54 22 -108q3 -6 3 -12q0 -10 -9 -14l-96 -49q-12 -6 -19 -6q-10 0 -18 15q-20 36 -20 116q0 30 4 58q-51 -56 -89 -89q-121 -104 -256 -104q-105 0 -163 59q-52 52 -52 137zM458 1277q0 76 54 128q55 54 136 54q75 0 128 -54q54 -54 54 -127t-54 -126q-54 -54 -132 -54 q-77 0 -132 54q-54 52 -54 125zM555 1278q0 -39 27 -67q25 -27 61 -27t63 27q26 27 26 65q0 42 -26 70q-26 27 -64 27q-35 0 -60 -27q-27 -28 -27 -68z" />
<glyph unicode="&#x17d;" horiz-adv-x="835" vert-adv-y="2528" d="M-88 15q0 5 2 16l24 114l848 1120h-533q-22 0 -22 14q0 6 5 19l35 86q9 21 31 21h679q20 0 20 -17q0 -4 -2 -14l-20 -94l-853 -1135h623q21 0 21 -17q0 -3 -2 -14l-20 -90q-4 -25 -29 -24h-786q-21 0 -21 15zM395 1738q0 7 10 18l28 30q13 14 20 14q5 0 21 -10l173 -105 l205 103q15 8 21 8q9 0 16 -12l28 -47q7 -12 7 -17q0 -8 -10 -14l-265 -160q-12 -7 -21 -7q-7 0 -18 9l-203 172q-12 10 -12 18z" />
<glyph unicode="&#x17e;" horiz-adv-x="796" vert-adv-y="2528" d="M-45 15q0 3 2 11l17 81l657 749h-428q-17 0 -17 14q0 5 2 13l17 80q3 20 25 20h589q16 0 16 -15q0 -3 -2 -11l-17 -80l-639 -744h497q17 0 17 -12q0 -6 -8 -18l-58 -89q-10 -14 -26 -14h-628q-16 0 -16 15zM323 1366q0 7 10 18l26 30q12 14 19 14t20 -10l165 -119 l195 117q13 8 20 8q9 0 15 -12l28 -47q6 -12 6 -17q0 -7 -10 -14l-252 -174q-12 -8 -18 -8q-9 0 -20 11l-193 185q-11 11 -11 18z" />
<glyph unicode="&#x2c6;" vert-adv-y="2528" d="M408 1231q0 9 13 17l248 171q13 9 19 9q8 0 20 -12l194 -187q9 -9 9 -15q0 -8 -8 -17l-29 -34q-11 -12 -18 -12q-6 0 -20 10l-164 119l-195 -117q-13 -8 -20 -8q-9 0 -15 11l-27 46q-7 13 -7 19z" />
<glyph unicode="&#x2da;" vert-adv-y="2528" d="M457 1277q0 76 54 128q55 54 136 54q75 0 128 -54q54 -54 54 -127t-54 -126q-54 -54 -132 -54q-77 0 -132 54q-54 52 -54 125zM554 1278q0 -39 27 -67q25 -27 61 -27t63 27q26 27 26 65q0 42 -26 70q-26 27 -64 27q-35 0 -60 -27q-27 -28 -27 -68z" />
<glyph unicode="&#x2dc;" vert-adv-y="2528" d="M359 1243q0 12 36 55q81 97 183 97q42 0 93 -28q12 -7 60 -36q30 -19 61 -19q55 0 106 70q8 12 17 12q8 0 13 -4l49 -36q12 -9 12 -15q0 -19 -47 -69q-78 -84 -170 -84q-51 0 -120 43q-64 40 -96 40q-37 0 -66 -26q-14 -11 -39 -45q-11 -14 -21 -14q-6 0 -11 4l-49 38 q-11 9 -11 17z" />
<glyph unicode="&#x2000;" horiz-adv-x="916" vert-adv-y="0" />
<glyph unicode="&#x2001;" horiz-adv-x="1833" vert-adv-y="0" />
<glyph unicode="&#x2002;" horiz-adv-x="916" vert-adv-y="0" />
<glyph unicode="&#x2003;" horiz-adv-x="1833" vert-adv-y="0" />
<glyph unicode="&#x2004;" horiz-adv-x="611" vert-adv-y="0" />
<glyph unicode="&#x2005;" horiz-adv-x="458" vert-adv-y="0" />
<glyph unicode="&#x2006;" horiz-adv-x="305" vert-adv-y="0" />
<glyph unicode="&#x2007;" horiz-adv-x="305" vert-adv-y="0" />
<glyph unicode="&#x2008;" horiz-adv-x="229" vert-adv-y="0" />
<glyph unicode="&#x2009;" horiz-adv-x="366" vert-adv-y="0" />
<glyph unicode="&#x200a;" horiz-adv-x="101" vert-adv-y="0" />
<glyph unicode="&#x2010;" horiz-adv-x="607" vert-adv-y="2528" d="M54 461q0 4 2 13l21 98q6 25 30 24h422q21 0 21 -17q0 -3 -3 -14l-20 -98q-6 -25 -31 -24h-421q-21 0 -21 18z" />
<glyph unicode="&#x2011;" horiz-adv-x="607" vert-adv-y="2528" d="M54 461q0 4 2 13l21 98q6 25 30 24h422q21 0 21 -17q0 -3 -3 -14l-20 -98q-6 -25 -31 -24h-421q-21 0 -21 18z" />
<glyph unicode="&#x2012;" horiz-adv-x="607" vert-adv-y="2528" d="M54 461q0 4 2 13l21 98q6 25 30 24h422q21 0 21 -17q0 -3 -3 -14l-20 -98q-6 -25 -31 -24h-421q-21 0 -21 18z" />
<glyph unicode="&#x2013;" horiz-adv-x="834" vert-adv-y="2528" d="M46 470q0 4 2 13l17 80q6 25 30 24h668q21 0 21 -17q0 -3 -3 -14l-16 -80q-6 -25 -31 -24h-667q-21 0 -21 18z" />
<glyph unicode="&#x2014;" horiz-adv-x="1327" vert-adv-y="2528" d="M44 475q0 4 2 13l15 71q5 25 30 24h1168q21 0 21 -17q0 -4 -2 -14l-16 -71q-5 -25 -29 -24h-1168q-21 0 -21 18z" />
<glyph unicode="&#x2018;" horiz-adv-x="607" vert-adv-y="2528" d="M250 984q0 8 9 21l301 438q8 13 17 13q5 0 15 -4l44 -20q14 -6 14 -14q0 -7 -5 -20l-169 -408q-9 -20 -31 -20h-174q-21 0 -21 14z" />
<glyph unicode="&#x2019;" horiz-adv-x="607" vert-adv-y="2528" d="M245 999q0 5 6 19l169 408q6 14 11 18q5 3 20 3h173q21 0 21 -15q0 -8 -9 -21l-300 -438q-9 -13 -17 -13q-6 0 -16 5l-44 19q-14 7 -14 15z" />
<glyph unicode="&#x201a;" horiz-adv-x="607" vert-adv-y="2528" d="M-13 -213q0 5 6 19l169 408q8 21 31 21h173q22 0 22 -14q0 -8 -10 -22l-301 -439q-8 -12 -16 -12q-5 0 -16 5l-44 19q-14 7 -14 15z" />
<glyph unicode="&#x201c;" horiz-adv-x="948" vert-adv-y="2528" d="M250 984q0 8 9 21l301 438q8 13 17 13q5 0 15 -4l44 -20q14 -6 14 -14q0 -7 -5 -20l-169 -408q-9 -20 -31 -20h-174q-21 0 -21 14zM592 984q0 8 9 21l301 438q9 13 17 13q6 0 15 -4l44 -20q14 -6 14 -15q0 -6 -5 -19l-169 -408q-9 -20 -31 -20h-174q-21 0 -21 14z" />
<glyph unicode="&#x201d;" horiz-adv-x="948" vert-adv-y="2528" d="M245 999q0 5 6 19l169 408q8 21 31 21h173q21 0 21 -15q0 -8 -9 -21l-300 -438q-9 -13 -17 -13q-6 0 -16 5l-44 19q-14 7 -14 15zM587 999q0 6 5 19l170 408q8 21 31 21h173q22 0 21 -15q0 -8 -9 -21l-300 -438q-9 -13 -17 -13q-6 0 -16 5l-44 19q-14 7 -14 15z" />
<glyph unicode="&#x201e;" horiz-adv-x="948" vert-adv-y="2528" d="M-13 -213q0 6 6 19l169 408q8 21 31 21h173q21 0 21 -15q0 -8 -9 -21l-300 -438q-9 -13 -17 -13q-4 0 -16 5l-44 20q-14 6 -14 14zM329 -213q0 7 5 19l170 408q8 21 31 21h173q21 0 21 -15q0 -8 -9 -21l-300 -438q-10 -13 -17 -13q-5 0 -16 5l-44 20q-14 6 -14 14z" />
<glyph unicode="&#x2022;" horiz-adv-x="1405" vert-adv-y="2528" d="M413 713q0 124 86 208q87 85 210 85q117 0 202 -85q86 -86 86 -207t-86 -207q-85 -85 -206 -85t-206 85q-86 86 -86 206z" />
<glyph unicode="&#x2026;" horiz-adv-x="1820" vert-adv-y="2528" d="M77 110q0 59 40 99q41 41 101 41q54 0 93 -40q41 -41 41 -98t-41 -97q-40 -40 -96 -40q-57 0 -98 40q-40 39 -40 95zM684 110q0 59 40 99q41 41 101 41q54 0 93 -40q41 -41 41 -98t-41 -97q-40 -40 -96 -40q-57 0 -98 40q-40 39 -40 95zM1290 110q0 59 40 99 q41 41 101 41q54 0 93 -40q41 -41 41 -98t-41 -97q-40 -40 -96 -40q-57 0 -98 40q-40 39 -40 95z" />
<glyph unicode="&#x202f;" horiz-adv-x="366" vert-adv-y="0" />
<glyph unicode="&#x2039;" horiz-adv-x="683" vert-adv-y="2528" d="M105 487q0 7 13 20l442 439q11 11 17 11q5 0 17 -7l61 -38q12 -7 12 -17q0 -6 -9 -16l-362 -400l174 -384q5 -12 5 -16q0 -12 -19 -21l-57 -28q-14 -7 -19 -7q-8 0 -14 11l-253 434q-8 14 -8 19z" />
<glyph unicode="&#x203a;" horiz-adv-x="683" vert-adv-y="2528" d="M0 84q0 7 9 17l362 400l-174 384q-5 11 -5 17q0 11 19 20l57 28q14 7 19 7q7 0 14 -11l253 -435q8 -14 8 -18q0 -7 -13 -20l-442 -439q-11 -11 -18 -11q-5 0 -16 7l-62 38q-11 7 -11 16z" />
<glyph unicode="&#x205f;" horiz-adv-x="458" vert-adv-y="0" />
<glyph unicode="&#x2122;" horiz-adv-x="1442" vert-adv-y="2528" d="M179 1248v56q-1 27 27 26h472q27 0 27 -16q0 -7 -3 -16l-17 -56q-5 -19 -28 -20h-164v-666q1 -27 -27 -26h-67q-26 -1 -27 26v666h-166q-28 -1 -27 26zM782 550v7l46 756q1 16 18 17h85q16 0 22 -16l144 -395q1 -2 4 -12q1 -3 3 -10q4 16 6 22l145 395q6 16 23 16h88 q17 0 18 -17l46 -755v-8l1 -10q0 -10 -16 -10h-91q-17 0 -17 17l-18 566l-143 -385q-5 -16 -23 -16h-44q-17 0 -22 16l-138 385l-18 -566q0 -17 -17 -17h-87q-15 0 -15 20z" />
<glyph unicode="&#x25fc;" horiz-adv-x="1005" vert-adv-y="2010" d="M0 0v1005h1005v-1005h-1005z" />
</font>
</defs>
</svg>
